<?xml version="1.0" encoding="utf-8"?>
<!-- Generator: Adobe Illustrator 22.0.1, SVG Export Plug-In . SVG Version: 6.00 Build 0)  -->
<svg version="1.1" id="Слой_1" xmlns="http://www.w3.org/2000/svg" xmlns:xlink="http://www.w3.org/1999/xlink" x="0px" y="0px"
	 viewBox="0 0 204 340" style="enable-background:new 0 0 204 340;" xml:space="preserve">
<style type="text/css">
	.st0{fill:#886553;}
	.st1{fill:#A7886D;}
	.st2{fill:#BDA691;}
	.st3{fill:#C6B2A0;}
	.st4{fill:#C3AE9C;}
	.st5{fill:#AE9279;}
	.st6{fill:#BAA28D;}
	.st7{fill:#505050;}
	.st8{fill:#EEE4DA;}
	.st9{fill:#F6F0EB;}
	.st10{fill:#DFCDBB;}
	.st11{fill:#C8B5A4;}
	.st12{fill:#B79D87;}
	.st13{fill:#C5B09F;}
</style>
<g>
	<g>
		<path class="st0" d="M109.3,108.5c0-0.8-0.6-1.5-1.4-1.5h-9.9c-0.8,0-1.4,0.7-1.4,1.5l2.5,196c0,0.8,0.7,1.5,1.4,1.5h4.8
			c0.8,0,1.4-0.7,1.4-1.5L109.3,108.5z"/>
		<rect x="53.5" y="101.2" class="st1" width="99" height="11.6"/>
		<rect x="44" y="255.5" class="st1" width="120.2" height="9.3"/>
		<rect x="44" y="262.8" class="st0" width="120.2" height="2"/>
		<rect x="44" y="255.5" class="st2" width="120.2" height="2"/>
		<path class="st1" d="M110.7,255.5V4c0-1.2-1-2.3-2.3-2.3H97.6c-1.2,0-2.3,1-2.3,2.3v251.5H110.7z"/>
		<path class="st0" d="M110.7,255.5V4c0-1.2-1-2.3-2.3-2.3v253.7H110.7z"/>
		<path class="st3" d="M95.3,255.5V4c0-1.2,1-2.3,2.3-2.3v253.7H95.3z"/>
		<path class="st1" d="M66.1,57.5c0.1-1.2-0.8-2.3-2.1-2.4L51.2,54c-1.2-0.1-2.3,0.8-2.5,2L21.9,336c-0.1,1.2,0.8,2.2,2,2.2h17.9
			c1.2,0,2.3-1,2.4-2.2L66.1,57.5z"/>
		<path class="st4" d="M51.2,54c-1.2-0.1-2.3,0.8-2.5,2L21.9,336c-0.1,1.2,0.8,2.2,2,2.2L51.2,54z"/>
		<path class="st0" d="M66.1,57.5c0.1-1.2-0.8-2.3-2.1-2.4L41.9,338.2c1.2,0,2.3-1,2.4-2.2L66.1,57.5z"/>
		<path class="st1" d="M157.2,56c-0.1-1.2-1.2-2.2-2.5-2L142,55.1c-1.2,0.1-2.2,1.2-2.1,2.4L161.7,336c0.1,1.2,1.2,2.2,2.4,2.2h18
			c1.2,0,2.2-1,2-2.2L157.2,56z"/>
		<path class="st4" d="M142,55.1c-1.2,0.1-2.2,1.2-2.1,2.4L161.7,336c0.1,1.2,1.2,2.2,2.4,2.2L142,55.1z"/>
		<path class="st0" d="M157.2,56c-0.1-1.2-1.2-2.2-2.5-2l27.3,284.3c1.2,0,2.2-1,2-2.2L157.2,56z"/>
		<path class="st5" d="M204.3,216.5c0-1.2-1-2.3-2.3-2.3H4c-1.2,0-2.3,1-2.3,2.3v8.1c0,1.2,1,2.3,2.3,2.3H202c1.2,0,2.3-1,2.3-2.3
			V216.5z"/>
		<path class="st6" d="M204.3,216.5c0-1.2-1-2.3-2.3-2.3H4c-1.2,0-2.3,1-2.3,2.3H204.3z"/>
		<path class="st0" d="M1.7,224.6c0,1.2,1,2.3,2.3,2.3H202c1.2,0,2.3-1,2.3-2.3H1.7z"/>
		<path class="st7" d="M104.9,247c0-1-0.8-1.9-1.9-1.9c-1,0-1.9,0.8-1.9,1.9c0,1,0.8,1.9,1.9,1.9C104,248.9,104.9,248,104.9,247z"/>
		<path class="st7" d="M41.9,260.1c0-1-0.8-1.9-1.9-1.9c-1,0-1.9,0.8-1.9,1.9s0.8,1.9,1.9,1.9C41,262,41.9,261.2,41.9,260.1z"/>
		<path class="st7" d="M55,107c0-1-0.8-1.9-1.9-1.9c-1,0-1.9,0.8-1.9,1.9c0,1,0.8,1.9,1.9,1.9C54.2,108.8,55,108,55,107z"/>
		<path class="st7" d="M154.8,107c0-1-0.8-1.9-1.9-1.9c-1,0-1.9,0.8-1.9,1.9c0,1,0.8,1.9,1.9,1.9C153.9,108.8,154.8,108,154.8,107z"
			/>
		<path class="st7" d="M168.3,260.1c0-1-0.8-1.9-1.9-1.9c-1,0-1.9,0.8-1.9,1.9s0.8,1.9,1.9,1.9C167.4,262,168.3,261.2,168.3,260.1z"
			/>
		<path class="st7" d="M104.9,235.2c0-1-0.8-1.9-1.9-1.9c-1,0-1.9,0.8-1.9,1.9c0,1,0.8,1.9,1.9,1.9
			C104,237.1,104.9,236.2,104.9,235.2z"/>
	</g>
	<g>
		<path class="st8" d="M191,92.3c0-1.2-1-2.3-2.3-2.3H17.3c-1.2,0-2.3,1-2.3,2.3V212c0,1.2,1,2.3,2.3,2.3h171.4c1.2,0,2.3-1,2.3-2.3
			V92.3z"/>
		<path class="st9" d="M17.3,214.3V94.6c0-1.2,1-2.3,2.3-2.3H191c0-1.2-1-2.3-2.3-2.3H17.3c-1.2,0-2.3,1-2.3,2.3V212
			C15,213.2,16.1,214.3,17.3,214.3z"/>
		<path class="st10" d="M188.7,92.3v117.4c0,1.2-1,2.3-2.3,2.3H17.3v2.3h171.4c1.2,0,2.3-1,2.3-2.3V92.3H188.7z"/>
		<path class="st10" d="M84.2,90.1v12.4c0,1.3,1,2.3,2.3,2.3h41.3c1.3,0,2.3-1,2.3-2.3V90.1H84.2z"/>
	</g>
	<g>
		<path class="st11" d="M121.9,76.2c-1.2,0-36.5,0-37.7,0H82c-1.2,0-2.3,1-2.3,2.3h46.5c0-1.2-1-2.3-2.3-2.3H121.9z"/>
		<path class="st12" d="M79.7,78.5v14.8c0,1.2,1,2.3,2.3,2.3h42c1.2,0,2.3-1,2.3-2.3V78.5H79.7z"/>
		<path class="st1" d="M118.8,74.1l-2.8-7.1c-0.5-1.1-1.9-2.1-3.1-2.1H93.2c-1.2,0-2.6,0.9-3.1,2.1l-2.8,7.1
			c-0.5,1.1-1.9,2.1-3.1,2.1c1.2,0,36.5,0,37.7,0C120.6,76.2,119.2,75.3,118.8,74.1z"/>
		<path class="st13" d="M115.9,67.1c-0.5-1.1-1.9-2.1-3.1-2.1H93.2c-1.2,0-2.6,0.9-3.1,2.1H115.9z"/>
		<path class="st1" d="M79.7,93.3c0,1.2,1,2.3,2.3,2.3h42c1.2,0,2.3-1,2.3-2.3H79.7z"/>
		<path class="st7" d="M107.5,86.1c0-2.5-2-4.5-4.5-4.5c-2.5,0-4.5,2-4.5,4.5c0,2.5,2,4.5,4.5,4.5C105.5,90.6,107.5,88.6,107.5,86.1
			z"/>
	</g>
</g>
</svg>
