<?xml version="1.0" encoding="utf-8"?>
<!-- Generator: Adobe Illustrator 22.0.1, SVG Export Plug-In . SVG Version: 6.00 Build 0)  -->
<svg version="1.1" id="Слой_1" xmlns="http://www.w3.org/2000/svg" xmlns:xlink="http://www.w3.org/1999/xlink" x="0px" y="0px"
	 viewBox="0 0 203 213" style="enable-background:new 0 0 203 213;" xml:space="preserve">
<style type="text/css">
	.st0{fill:#D8F5FB;}
	.st1{fill:#FFFFFF;}
	.st2{fill:#949494;}
	.st3{fill:#EFE6DD;}
	.st4{fill:#D3C3B6;}
	.st5{fill:#C5B09F;}
	.st6{fill:#BAA28D;}
	.st7{fill:#FAF7F5;}
	.st8{fill:#616161;}
	.st9{fill:#AF5B5A;}
	.st10{fill:#596D7B;}
	.st11{fill:#FCC37D;}
	.st12{fill:#A7886D;}
	.st13{fill:#757575;}
	.st14{fill:#CCCCC5;}
</style>
<g>
	<g>
		<path class="st0" d="M166.9,155.7c0.5-0.4,0.9-0.7,1.2-1c0.2-0.1,0.3-0.2,0.4-0.3c0.1-0.1,0.1-0.1,0.1-0.1
			c-0.2-0.2-0.4-0.5-0.6-0.7c-0.2,0.4-0.4,0.7-0.6,1.1C167.2,155.1,167,155.4,166.9,155.7z"/>
		<path class="st0" d="M172.1,166.6c0.2-0.2,0.4-0.3,0.6-0.5c-0.2-0.2-0.4-0.4-0.6-0.5C172.2,165.9,172.2,166.3,172.1,166.6z"/>
		<path class="st0" d="M168,153.6c-1.2-1.3-2.6-2.6-3.8-3.9c-1.2-1.3-2.3-2.8-3.1-4.5c0.8-0.7,2.4-2,3.2-2.8c-0.3-1.1-1-1.8-1.7-2.4
			c-0.8-0.6-1.6-1.2-2.3-1.9c0.7-0.7,1.4-1.3,0.7-2c-0.3-0.7-0.6-1.1-1-1.5c-0.2-0.2-0.4-0.3-0.7-0.4c-0.1,0-0.1,0-0.2-0.1
			c-0.1,0-0.1-0.1-0.2-0.1c-0.1-0.1-0.2-0.1-0.3-0.1c-0.9-0.3-1.8-0.3-2.6,0.1c0.3,0.7,0.6,1.3,0.8,2c0.2,0.7,0.4,1.3,0.5,2
			c0.3,1.3,0.5,2.6,0.6,3.9c0.1,1.2,0.1,2.4,0.1,3.5c0,0.6,0,1.1,0,1.6c0,0.5,0,1,0.1,1.5c0.2,1.9,0.6,3.5,2.1,4.4
			c0.7,0.5,1.7,0.8,3,1c0.6,0.1,1.3,0.1,2.1,0c0.4,0,0.8-0.1,1.3-0.1C167,153.8,167.5,153.7,168,153.6z"/>
		<path class="st0" d="M164.2,166l1.5-0.9c0.5-0.3,1-0.7,1.5-1l1.5-1c0.2-0.2,0.5-0.3,0.7-0.5l0.7-0.6c-0.8-2.3-1.4-4.6-3.3-6
			c-0.2,0.4-0.4,0.8-0.6,1.3c-0.2,0.4-0.3,0.8-0.5,1.2c-0.3,0.8-0.6,1.6-0.8,2.4c-0.2,0.8-0.3,1.6-0.5,2.5
			C164.3,164.1,164.3,165,164.2,166z"/>
		<path class="st0" d="M104.6,97.6c-0.2,0.2-0.3,0.4-0.4,0.4c0,0,0,0,0-0.1c0,0,0-0.1,0.1-0.2c0-0.1,0.1-0.2,0.1-0.3
			C104.5,97.6,104.5,97.6,104.6,97.6C104.6,97.6,104.6,97.6,104.6,97.6c0.3-0.4,0.9-1.1,1.1-1.4c-0.1,0.1-0.2,0.2-0.3,0.3l0,0l0,0
			l0,0l0,0l-1.6,1.6l0,0c0,0,0,0-0.1,0.1c0,0-0.1,0.1-0.1,0.1c0,0,0,0,0,0c0,0-0.1,0,0,0c0,0,0,0,0,0c0,0,0,0,0,0c0,0,0,0,0,0l0,0
			c0.1,0,0.1,0,0.1,0c0,0-0.1,0-0.2,0c0,0,0,0,0,0l0,0l-0.1,0c-0.2-0.1-0.5-0.2-0.7-0.4c-0.4-0.3-0.9-0.6-1.3-0.9
			c-0.1,0.3-0.2,0.7-0.2,1.1c0,0.4,0.1,0.7,0.3,1c0.2,0.3,0.4,0.4,0.7,0.6c0,0,0.1,0,0.1,0.1c0.1,0,0.1,0.1,0.2,0.1
			c0.1,0.1,0.3,0.2,0.4,0.2c0.3,0.1,0.6,0.2,0.8,0.2c1.1,0.2,2.3-0.2,2.8-1.1c0.3-0.4,0.4-0.9,0.3-1.5c-0.1-0.5-0.3-1.1-0.7-1.6
			c0,0,0,0.1,0.1,0.3c0,0.2,0,0.4-0.1,0.6C105.7,97.5,105.1,97.9,104.6,97.6z"/>
		<path class="st0" d="M96.8,93.2c0.1-0.2,0.2-0.3,0.3-0.4c0.1-0.1,0.2-0.3,0.3-0.4c-0.6,0-0.9,0.2-1,0.3
			C96.4,92.8,96.5,93,96.8,93.2z"/>
		<path class="st0" d="M127.7,85.8l-0.1-0.2l-0.1-0.2c-0.1-0.1-0.1-0.3-0.2-0.4c-0.1-0.3-0.2-0.6-0.4-0.8c-0.1-0.3-0.3-0.5-0.4-0.8
			c-0.2-0.3-0.3-0.5-0.5-0.7c-0.1-0.1-0.2-0.2-0.3-0.4l-0.3-0.3c-0.2-0.2-0.4-0.4-0.6-0.6c-0.5-0.4-0.9-0.8-1.4-1.1
			c-0.3-0.2-0.5-0.3-0.7-0.5c-0.3-0.1-0.5-0.3-0.8-0.4c-0.1-0.1-0.3-0.1-0.4-0.2l-0.4-0.2c-0.3-0.1-0.5-0.2-0.8-0.3l-0.8-0.3
			l-0.4-0.1l-0.4-0.1l-0.8-0.2c-0.3,0-0.6-0.1-0.8-0.1c0.8,0.4,1.4,1,2.1,1.6c0.2,0.2,0.3,0.3,0.5,0.5l0.1,0.1l0.1,0.1l0.2,0.2
			c0.3,0.3,0.6,0.7,0.9,1c0.5,0.7,1.1,1.5,1.5,2.3l0.2,0.3c0.1,0.1,0.1,0.2,0.2,0.3c0.1,0.2,0.2,0.4,0.3,0.6
			c0.1,0.2,0.2,0.4,0.3,0.7l0.2,0.3c0,0.1,0.1,0.2,0.1,0.3c0.1,0.2,0.2,0.5,0.3,0.7c0.1,0.2,0.2,0.5,0.2,0.7l0.1,0.3
			c0,0.1,0.1,0.2,0.1,0.3c0.1,0.2,0.1,0.5,0.2,0.7c0.1,0.2,0.1,0.5,0.2,0.7c0.1,0.2,0.1,0.5,0.2,0.7c0.1,0.5,0.2,1,0.3,1.4
			c0.4,1.9,0.7,3.9,0.9,5.9c0.6-1.9,1.1-3.9,1.3-5.9C127.9,89.8,127.9,87.8,127.7,85.8z"/>
		<path class="st0" d="M97.5,79.7c0.2,0.2,0.4,0.3,0.5,0.4c0.2,0.2,0.3,0.3,0.5,0.4c0.2,0.1,0.3,0.2,0.5,0.3c0.1,0,0.2,0.1,0.3,0.1
			c0.1,0,0.2,0.1,0.3,0.1c0.3,0.2,0.7,0.2,1.1,0.3c0.2,0,0.4,0,0.6,0c0.2,0,0.4,0,0.6,0c0.1,0,0.2,0,0.3,0c0.1,0,0.2,0,0.3,0
			c0.2,0,0.4,0,0.7,0l0.2,0l0.2,0c0.1,0,0.2,0,0.4,0c0.2,0,0.5,0,0.8-0.1c0.2,0,0.5,0,0.8-0.1l0.4,0l0.2,0l0.2,0c0.3,0,0.5,0,0.8,0
			l0.4,0c0.1,0,0.3,0,0.4,0c-0.1-0.1-0.2-0.1-0.3-0.2l-0.3-0.1c-0.2-0.1-0.4-0.2-0.6-0.3c0,0-0.1-0.1-0.1-0.1l-0.2-0.1l-0.3-0.1
			c-0.2-0.1-0.4-0.2-0.6-0.3c-0.2-0.1-0.4-0.1-0.6-0.2l-0.3-0.1c-0.1,0-0.2-0.1-0.3-0.1c-0.2-0.1-0.4-0.1-0.6-0.2l-0.3-0.1
			c-0.1,0-0.2,0-0.3-0.1c-1.5-0.4-3.1-0.6-4.6-0.7c-0.1,0.1-0.2,0.2-0.3,0.3l-0.3,0.3C97.9,79.3,97.7,79.5,97.5,79.7z"/>
		<path class="st0" d="M103.8,75.5c1.8,0.9,3.8,1.3,6.2,1.6c0.3,0,0.6,0.1,0.9,0.1c0.3,0.1,0.6,0.1,0.9,0.2l0.5,0.1l0.2,0l0.1,0
			l0.1,0c0.3,0,0.5,0,0.8,0c0.3,0,0.5,0,0.8,0c0.3,0,0.6,0,0.9,0c0.5,0,1.2,0.1,1.7,0.2l-0.3-0.2c-0.1-0.1-0.2-0.1-0.3-0.2
			c-0.2-0.1-0.4-0.2-0.6-0.3c-0.2-0.1-0.5-0.2-0.7-0.3l-0.2-0.1l-0.2-0.1l-0.4-0.1l-0.3-0.1l-0.1,0l-0.1,0l-0.2-0.1
			c-0.3-0.1-0.6-0.2-0.9-0.3c-0.2-0.1-0.3-0.1-0.4-0.2l-0.5-0.1c-0.3-0.1-0.6-0.2-0.9-0.2C108.5,74.8,106,74.9,103.8,75.5z"/>
		<path class="st0" d="M47.5,41.3c3.3-4,6.8-7.4,10.2-10.2c1.7-1.4,3.4-2.6,5-3.7c1.6-1.1,3.2-2.1,4.8-2.9c3.1-1.7,5.9-3,8.4-4
			c2.5-1,4.7-1.6,6.5-2.1c0.4-0.3,0.8-0.5,1.2-0.8c0.4-0.3,0.9-0.5,1.3-0.8c0.9-0.5,1.9-1.1,3-1.7c1.1-0.6,2.3-1.2,3.6-1.8
			c1.3-0.6,2.8-1.2,4.4-1.8c-1.4,0-2.8,0.2-4.2,0.3c-12,1.9-23.5,6.4-33.6,13c-5,3.3-9.7,7.2-13.8,11.4c-0.5,0.5-1,1.1-1.5,1.6
			l-0.7,0.8L41.7,39c-0.1,0.1-0.3,0.3-0.3,0.4c-0.8,1-1.6,2-2.4,3c-1.6,2-3.1,4.1-4.5,6.2c-0.3,0.5-0.5,0.9-0.8,1.4
			c-0.2,0.5-0.5,0.9-0.7,1.4c-0.5,0.9-0.9,1.9-1.3,2.8c-0.8,1.9-1.6,3.7-2.2,5.5c-0.3,0.9-0.6,1.8-0.9,2.7c-0.3,0.9-0.5,1.8-0.7,2.7
			c-0.1,0.4-0.2,0.9-0.3,1.3c-0.1,0.4-0.2,0.9-0.3,1.3c-0.2,0.8-0.3,1.7-0.4,2.5c2.4-5.4,5.3-10.6,8.7-15.4c0.4-0.6,0.9-1.2,1.3-1.8
			c0.4-0.6,0.9-1.2,1.4-1.7c0.5-0.6,0.9-1.1,1.4-1.7c0.5-0.6,0.9-1.1,1.4-1.7c0.5-0.5,1-1.1,1.5-1.6l1.5-1.6l0.8-0.8l0.4-0.4
			l0.2-0.2l0.2-0.2C46.3,42.4,46.9,41.8,47.5,41.3z"/>
		<path class="st0" d="M82.3,18.4c-0.8,0.5-1.5,1.1-2.1,1.5c-0.6,0.5-1.2,0.9-1.6,1.4c-0.9,0.8-1.6,1.5-2.1,2.1
			c-0.9,1.1-0.9,1.6-0.4,1.7c0.5,0.1,1.5-0.3,2.9-0.8c0.7-0.3,1.4-0.6,2.2-0.9c0.8-0.3,1.6-0.7,2.4-1.1c0.8-0.4,1.6-0.8,2.4-1.1
			c0.8-0.4,1.5-0.7,2.2-1.1c1.3-0.7,2.4-1.3,2.7-1.8c0.4-0.5,0.1-0.8-1.2-0.9C88.3,17.2,85.9,17.5,82.3,18.4z"/>
		<path class="st0" d="M79.2,106.1c0,0.3,0.1,0.6,0.2,0.8c0.1,0.2,0.2,0.4,0.3,0.6L80,108c0.1,0.2,0.2,0.4,0.3,0.5
			c0.1,0.2,0.2,0.3,0.3,0.5C80.1,108.1,79.6,107.1,79.2,106.1z"/>
		<path class="st0" d="M158.4,133.3c-0.7,0.9-1.4,1.8-2,2.7c-0.3,0.4-0.7,0.9-1.1,1.3l-1.1,1.3l-0.5,0.6c-0.2,0.2-0.4,0.4-0.6,0.7
			l-1.2,1.3c-0.4,0.4-0.8,0.9-1.3,1.3l-1.3,1.3c-3.5,3.3-7.4,6.3-11.5,8.9c4.4-2.4,8.5-5.4,12-8.7c0.4-0.4,0.9-0.8,1.3-1.3l0.7-0.6
			l0.6-0.7c0.4-0.4,0.8-0.9,1.2-1.3l0.3-0.3l0.3-0.3l0.5-0.6c1.4-1.7,2.8-3.5,4-5.3c2.5-3.6,4.5-7.5,5.9-11.3
			c1.5-3.8,2.5-7.7,3-11.3c-0.4,1-1,2-1.6,2.9c-0.6,0.9-1.3,1.8-1.7,2.8c0,0.6,0,1.2-0.1,1.9c0,0.6-0.1,1.3-0.2,2
			c-0.1,0.7-0.3,1.4-0.4,2.1c-0.2,0.7-0.3,1.5-0.6,2.2c-0.2,0.7-0.5,1.5-0.8,2.3c-0.1,0.2-0.2,0.4-0.2,0.6c-0.1,0.2-0.2,0.4-0.3,0.6
			c-0.2,0.4-0.4,0.7-0.6,1.1C160.4,130.6,159.4,132,158.4,133.3z"/>
		<path class="st0" d="M96.8,69.4l-0.4,0.1l-0.4,0.1l-0.8,0.2l-0.8,0.3c-0.3,0.1-0.5,0.2-0.8,0.3l-0.8,0.3c-0.3,0.1-0.5,0.2-0.8,0.3
			c-0.5,0.2-1,0.5-1.5,0.7c-2,1-3.7,2.3-5.3,3.7c-0.2,0.2-0.4,0.4-0.6,0.6c-0.2,0.2-0.4,0.4-0.6,0.6c-0.4,0.4-0.7,0.8-1,1.2
			l-0.5,0.6L82,79c-0.3,0.4-0.6,0.9-0.9,1.3C80,82,79,83.8,78.3,85.7c-1.4,3.7-2,7.6-1.7,11.2c0.2,3.6,1.2,7.1,2.8,10
			c0.7,3.1,2.1,6.1,4,8.6c0.9,1.3,2,2.4,3.2,3.5c1.3,1.1,2.6,2.1,4,3.1c1.4,0.9,2.9,1.7,4.3,2.3c1.5,0.6,3,1.1,4.6,1.5
			c3.1,0.7,6.3,1,9.3,0.6c1.5-0.1,3-0.4,4.5-0.8c1.4-0.4,2.8-0.9,4.1-1.5c2.6-1.2,4.9-2.9,6.8-4.8l0.7-0.7c0.2-0.2,0.4-0.5,0.6-0.8
			c0.4-0.5,0.8-1.1,1.2-1.6c0.2-0.3,0.3-0.6,0.5-0.8l0.3-0.4l0.2-0.4c0.2-0.3,0.3-0.6,0.5-0.8c0.2-0.3,0.3-0.6,0.5-0.9
			c1.2-2.5,2-5.1,2.4-7.7c0.2-2.3,0.4-4.6,0.5-7c0-2.4-0.1-4.8-0.4-7.2c0-0.3-0.1-0.6-0.1-0.9c-0.1-0.3-0.1-0.6-0.2-0.9
			c-0.1-0.3-0.1-0.6-0.2-0.9c0-0.1-0.1-0.3-0.1-0.4l-0.1-0.4c-0.1-0.3-0.2-0.6-0.2-0.9c-0.1-0.3-0.2-0.6-0.3-0.9l-0.1-0.4l-0.2-0.4
			c-0.1-0.3-0.2-0.6-0.3-0.8c-0.1-0.3-0.2-0.5-0.4-0.8l-0.2-0.4l-0.2-0.4c-0.1-0.3-0.3-0.5-0.4-0.8l-0.4-0.8l-0.2-0.4l-0.2-0.4
			c-0.2-0.2-0.3-0.5-0.5-0.7l-0.5-0.7l-0.2-0.3c-0.1-0.1-0.2-0.2-0.3-0.3c-0.2-0.2-0.4-0.4-0.5-0.7l-0.6-0.6l-0.3-0.3
			c-0.1-0.1-0.2-0.2-0.3-0.3l-0.6-0.6c-0.9-0.7-1.7-1.4-2.6-1.9c-0.9-0.6-1.9-1-2.9-1.3c-0.6-0.2-1.2-0.5-1.8-0.7
			c-0.6-0.2-1.2-0.4-1.8-0.5c-2.4-0.6-4.8-0.6-7-0.2c-2.2,0.4-4.3,1.4-6.2,2.8c0.2,0.2,0.4,0.4,0.6,0.5c0.1,0.1,0.2,0.2,0.3,0.2
			c0.1,0.1,0.2,0.2,0.3,0.2c0.2,0.1,0.4,0.3,0.6,0.4c0.2,0.1,0.4,0.3,0.6,0.4c-0.5,0.2-0.9,0.3-1.4,0.5c-0.2,0.1-0.4,0.2-0.7,0.3
			c-0.2,0.1-0.4,0.2-0.6,0.3c-0.4,0.3-0.8,0.5-1.2,0.8c-0.4,0.3-0.8,0.7-1.2,1c-0.2,0-0.4,0-0.6,0l-0.3,0c-0.1,0-0.2,0-0.3,0
			c-0.2,0-0.4,0-0.6,0c-0.1,0-0.2,0-0.3,0l-0.3,0c-0.2,0-0.4,0-0.6,0c-0.2,0-0.4,0.1-0.6,0.1l-0.3,0l-0.3,0.1
			c-0.2,0-0.4,0.1-0.6,0.1c-0.8,0.2-1.6,0.3-2.3,0.6c-0.4,0.1-0.7,0.3-1.1,0.4l-0.1,0L90.2,80c-0.1,0-0.2,0.1-0.3,0.1
			c-0.1,0-0.2,0.1-0.3,0.1c-0.1,0-0.2,0.1-0.3,0.1c-0.3,0.2-0.7,0.3-1,0.5c-0.2,0.1-0.3,0.2-0.5,0.2c-0.2,0.1-0.3,0.2-0.5,0.3
			l-0.2,0.1c-0.1,0.1-0.1,0.1-0.2,0.2c-0.1,0.1-0.3,0.2-0.4,0.3c-0.1,0.1-0.3,0.2-0.4,0.3c-0.1,0.1-0.3,0.2-0.4,0.3
			c-0.1,0.1-0.3,0.2-0.4,0.3c-0.1,0-0.1,0.1-0.2,0.2C85.1,83,85,83.1,85,83.2c-0.1,0.1-0.1,0.1-0.2,0.2c-0.1,0.1-0.1,0.1-0.2,0.2
			c-0.1,0.1-0.2,0.2-0.4,0.3c-0.1,0.1-0.1,0.1-0.2,0.2c-0.1,0.1-0.1,0.1-0.2,0.2c-0.1,0.1-0.2,0.2-0.4,0.3c-0.1,0.1-0.2,0.3-0.3,0.4
			c-0.1,0.1-0.2,0.2-0.3,0.4c-0.2,0.3-0.4,0.5-0.6,0.8c-0.1,0.1-0.2,0.3-0.3,0.4c-0.2,0.2-0.3,0.4-0.5,0.7c-0.2,0.2-0.3,0.4-0.5,0.6
			c-0.2,0.2-0.3,0.4-0.5,0.7c-0.2,0.2-0.3,0.4-0.5,0.6c-0.1,0.2-0.3,0.5-0.4,0.7c-1.1,1.8-2.1,3.6-2.9,5.5
			c-1.6,3.8-2.6,7.9-2.8,12.1c0,0.3,0,0.6,0.1,0.9c0.1,0.3,0.2,0.6,0.3,0.9c0.2,0.3,0.3,0.6,0.5,0.8c0.1,0.1,0.2,0.3,0.3,0.4
			c0.1,0.1,0.2,0.3,0.3,0.4c0.8,1,1.6,1.9,1.8,3c0.1,0.3,0.1,0.6,0.2,0.8c0.1,0.3,0.2,0.5,0.3,0.8l0.1,0.4l0.2,0.4
			c0.1,0.3,0.2,0.5,0.3,0.8c0.1,0.3,0.2,0.5,0.3,0.8l0.2,0.4c0,0.1,0,0.1,0.1,0.2l0.1,0.2c0.3,0.5,0.4,1,0.7,1.5
			c0.2-0.1,0.4-0.2,0.6-0.3c0.1,0.2,0.3,0.5,0.4,0.7c0.2,0.2,0.3,0.4,0.5,0.7l0.2,0.3c0.1,0.1,0.2,0.2,0.3,0.3
			c0.2,0.2,0.3,0.4,0.5,0.6c0,0.1,0.1,0.1,0.1,0.2l0.1,0.1l0.3,0.3l0.3,0.3c0.1,0.1,0.2,0.2,0.3,0.3c0.2,0.2,0.4,0.4,0.6,0.6
			c0.1,0.1,0.2,0.2,0.3,0.3l0.3,0.3c0.2,0.2,0.4,0.4,0.6,0.5c0.2,0.2,0.4,0.3,0.7,0.5l0.3,0.3c0.1,0,0.1,0.1,0.2,0.1l0.2,0.1
			c0.2,0.2,0.5,0.3,0.7,0.5l0.2,0.1l0.1,0.1l0.1,0.1l0.5,0.3c0.3,0.2,0.6,0.4,1,0.7c0.2,0.1,0.3,0.2,0.5,0.3l0.5,0.3
			c0.3,0.2,0.7,0.4,1,0.6c5.3,3,11.1,4.6,16.9,4.7c2.7,0.3,5.2,0.8,7.8,1.2c2.6,0.4,5.3,0.6,7.9,0.4c1-0.1,1.6,0.8,2.2,1.8
			c0.1,0.1,0.1,0.3,0.2,0.4c0.1,0.1,0.1,0.3,0.2,0.4c0.1,0.3,0.3,0.5,0.5,0.7c0.3,0.5,0.7,0.8,1.1,1c3.4,1.9,6.7,3.3,10.2,4
			c3.5,0.7,7.2,0.7,11.2-0.6c0,0,1,1.7,1.5,2.5c0.5-0.5,1-0.9,1.5-1.2c0.1-0.1,0.3-0.1,0.4-0.2c0.1-0.1,0.2-0.1,0.4-0.2
			c0.2-0.1,0.5-0.2,0.7-0.3c0.4,1.4,0.6,2.9,0.6,4.2c0,1.4,0,2.7-0.2,4c-0.1,0.7-0.2,1.3-0.3,1.9c-0.1,0.6-0.2,1.2-0.3,1.8
			c-0.1,0.6-0.2,1.1-0.3,1.7c0,0.3-0.1,0.5-0.1,0.8c0,0.3-0.1,0.5-0.1,0.7c-0.2,1.9,0,3.6,1.3,4.7c0.3,0.3,0.7,0.5,1.2,0.8
			c0.5,0.2,1.1,0.4,1.7,0.5c0.6,0.1,1.4,0.2,2.2,0.3c0.8,0,1.8,0.1,2.9-0.1c0,0,0,0,0,0c-0.5,0.7-1.1,1.4-1.6,2
			c-0.1,0-0.2,0.1-0.2,0.1c0,0,0,0.1,0.1,0.1c-0.6,0.8-1.1,1.6-1.6,2.4c-0.5,0.7-0.9,1.5-1.2,2.3c-0.4,0.8-0.7,1.6-0.9,2.5
			c-0.3,0.8-0.5,1.7-0.7,2.7c0.6-0.3,1.2-0.5,1.7-0.8l1.7-0.8l1.7-0.8c0.1-0.1,0.3-0.1,0.4-0.2l0.4-0.2l0.8-0.5
			c0.2,1.4,0.6,2.8,1.5,3.9c-0.1,0.3-0.1,0.7-0.2,1c-0.3,0.2-0.5,0.3-0.8,0.4c-0.2,0.1-0.4,0.2-0.6,0.3c-0.4,0.2-0.6,0.3-0.6,0.3
			c0,0.9,0.1,1.7,0.2,2.4c-0.6,0.9-1.2,1.8-2,2.6c-0.7,0.8-1.5,1.7-2.3,2.5c-0.2,0.2-0.4,0.4-0.6,0.6c-0.2,0.2-0.4,0.4-0.6,0.6
			c-0.4,0.4-0.8,0.8-1.2,1.1c-0.8,0.7-1.6,1.5-2.3,2.2c-1.5,1.3-2.7,2.5-3.4,3.6c-0.3,0.6-0.5,1.1-0.5,1.5c0,0.5,0.2,0.9,0.6,1.3
			c1.2,0.7,3.1,0.2,5.4-0.9c1.1-0.6,2.4-1.4,3.7-2.2c0.3-0.2,0.6-0.4,1-0.6c0.3-0.2,0.7-0.5,1-0.7c0.7-0.5,1.3-0.9,2-1.4
			c0.5,0.2,1.1,0.3,1.6,0.4c-3.8,2.2-3.2,3.8-2.1,5.2c1.1,1.4,2.6,2.6,0.2,4.2c-1.7,0.7-3.5,1.4-5.2,2.1c-1.7,0.7-3.5,1.4-5.2,2
			c-1.8,0.6-3.5,1.2-5.3,1.8c-1.8,0.5-3.6,1-5.5,1.3c-7.5,1.4-14.9,2.2-22.1,2.3c-7.2,0.1-14.3-0.3-21.3-1.3c-7-1-14-2.5-20.9-4.6
			c-7-2.1-14-4.8-21-8.2c-1.2-0.6-2.4-1.3-3.7-1.9c-6.6-3.7-12.7-8.1-18-13.1l-1-0.9c-0.3-0.3-0.7-0.6-1-1c-0.7-0.7-1.3-1.4-2-2.1
			c-1.3-1.4-2.5-2.8-3.8-4.3c-0.3-0.4-0.6-0.7-0.9-1.1L25,172c-0.6-0.8-1.1-1.5-1.7-2.3l-0.4-0.6l-0.4-0.6l-0.8-1.2
			c-0.5-0.8-1-1.6-1.5-2.5c1.1,0.4,2.2,0.9,3.3,1.4c-3.3-5.2-6.1-10.5-8.7-16c-2.6-5.5-4.9-11.1-7.1-16.9c-0.2-0.4-0.3-0.9-0.5-1.3
			l-0.5-1.3l-0.5-1.3c-0.2-0.5-0.3-0.9-0.5-1.4L5,125.2l-0.4-1.4c-0.1-0.5-0.2-0.9-0.4-1.4l-0.7-2.8l-0.2-0.7l-0.1-0.7l-0.3-1.4
			c-0.2-1-0.4-1.9-0.6-2.9c-0.1-1-0.3-1.9-0.4-2.9c-0.3-1.9-0.5-3.9-0.6-5.9c-0.1-1-0.1-2-0.2-3c0-1-0.1-2-0.1-3c0-1,0-2,0-3
			c0-1,0-2,0.1-3c0.1-2,0.2-4,0.5-6c0.1-1,0.2-2,0.4-3c0.2-1,0.3-2,0.5-3l0.3-1.5c0-0.3,0.1-0.5,0.1-0.8L3,78.1c0.2-1,0.5-2,0.7-3
			c0.1-0.5,0.2-1,0.4-1.5l0.4-1.5c0.3-1,0.6-2,0.9-3c0.3-1,0.7-2,1-3l0.5-1.5c0.1-0.2,0.2-0.5,0.3-0.7l0.3-0.7
			c3.1-7.8,7.3-15.4,12.6-22.4c0.7-0.9,1.4-1.8,2.2-2.7l1.1-1.3c0.2-0.2,0.4-0.4,0.5-0.7l0.6-0.6c1.5-1.7,3-3.4,4.7-5.1
			c1.7-1.7,3.5-3.3,5.3-4.9c0.9-0.8,1.9-1.5,2.8-2.3l0.7-0.6l0.7-0.5l1.4-1.1c7.7-5.8,16.4-10.4,25.6-13.8c4.6-1.6,9.4-2.9,14.2-3.9
			c1.2-0.2,2.4-0.4,3.7-0.7c1.2-0.2,2.5-0.3,3.7-0.5l0.9-0.1l0.9-0.1l1.9-0.2l1.9-0.2l1.9-0.1c2.5-0.1,5-0.1,7.6-0.1
			c1.3,0.1,2.5,0.1,3.8,0.2c0.6,0,1.3,0.1,1.9,0.2l1.9,0.2c5.1,0.5,10.2,1.5,15.3,2.8l-3.2-0.6l-1.6-0.3L119,3.6
			c-1.1-0.1-2.1-0.3-3.2-0.4l-3.2-0.3c-0.5,0-1.1-0.1-1.6-0.1l-1.6-0.1c-1.1-0.1-2.1-0.1-3.2-0.1c-2.1,0-4.2-0.1-6.3,0
			c-4.2,0.1-8.4,0.5-12.5,1c-1,0.1-2.1,0.3-3.1,0.4c-0.5,0.1-1,0.2-1.5,0.3l-1.5,0.3l-1.5,0.3c-0.5,0.1-1,0.2-1.5,0.3
			c-1,0.2-2,0.4-3.1,0.7C67.8,7.1,60.5,9.3,54,12.6c7-2.8,14-5.1,21.2-6.8c7.1-1.3,14.4-1.6,21.6-1.3l0.7,0l0.7,0l1.3,0.1
			c0.9,0.1,1.8,0.1,2.7,0.2c0.9,0.1,1.8,0.2,2.7,0.3c0.4,0,0.9,0.1,1.3,0.1c0.4,0,0.9,0.1,1.3,0.2c0.9,0.1,1.7,0.3,2.6,0.4l0.7,0.1
			l0.6,0.1c0.4,0.1,0.9,0.2,1.3,0.2c0.9,0.2,1.7,0.3,2.6,0.5c0.9,0.2,1.7,0.4,2.6,0.5c6.8,1.4,13.3,3.3,19.7,5.3
			c6.4,2,12.5,4.1,18.7,6.1c0.2,0.3,0.4,0.5,0.5,0.8c0.1,0.2,0.2,0.5,0.3,0.7c0.2,0.4,0.3,0.8,0.4,1.1c0.3,0.7,0.6,1.3,1.5,2.1
			l0.6,0.5l0.6,0.6l1.2,1.1l1.2,1.1l0.6,0.6c0.2,0.2,0.4,0.4,0.6,0.6c0.8,0.8,1.6,1.7,2.4,2.6c0.8,0.9,1.5,1.8,2.3,2.7
			c3,3.6,5.6,7.4,8.1,11.3c2.4,3.9,4.6,7.8,6.7,11.7c0.5,1,1,2,1.5,2.9c0.5,1,1,2,1.5,2.9c0.2,0.5,0.5,1,0.7,1.5
			c0.2,0.5,0.5,1,0.7,1.5c0.2,0.5,0.5,1,0.7,1.4c0.1,0.2,0.2,0.5,0.4,0.7c0.1,0.2,0.2,0.5,0.4,0.7c0.5-0.1,1.2,1.9,1.9,3.6
			c0.7,1.7,1.4,3,2.1,1.4c0.5,2.1,0.9,4.3,1.2,6.5c0.3,2.2,0.5,4.5,0.7,6.8c0.3,4.6,0.2,9.3-0.2,14.1c-0.1,1.2-0.2,2.4-0.4,3.5
			c-0.1,1.2-0.3,2.4-0.5,3.5c-0.2,1.2-0.4,2.3-0.6,3.5c-0.2,1.2-0.5,2.3-0.7,3.5c-0.1,0.6-0.3,1.1-0.4,1.7c-0.1,0.6-0.3,1.1-0.4,1.7
			c-0.1,0.6-0.3,1.1-0.4,1.7c-0.2,0.6-0.3,1.1-0.5,1.7c-0.2,0.6-0.3,1.1-0.5,1.7c-0.2,0.6-0.3,1.1-0.5,1.6c-0.3,1.1-0.7,2.2-1,3.2
			c-0.2,0.5-0.3,0.9-0.5,1.4l-0.5,1.4c-0.3,0.9-0.6,1.9-1,2.8c-0.3,0.9-0.7,1.9-1,2.8c-0.2,0.5-0.3,1-0.5,1.4l-0.5,1.4l-1,2.9
			l-1.1,2.9c-0.7,1.9-1.5,3.9-2.3,5.8c-0.6,0.9-1.2,1.7-1.8,2.6c-0.6,0.8-1.2,1.7-1.9,2.5c-0.7,0.8-1.3,1.6-2,2.5l-1,1.2
			c-0.2,0.2-0.4,0.4-0.6,0.6l-0.6,0.7c-3.1,3.5-6.6,6.8-10.3,9.8c-1.9,1.5-3.8,2.9-5.8,4.3c-1,0.7-2,1.3-3,2c-0.5,0.3-1,0.6-1.6,1
			l-1.6,0.9c-4.2,2.4-8.7,4.5-13.3,6.3c-4.6,1.7-9.4,3.1-14.2,4.1c-4.9,1-9.8,1.6-14.8,1.8c-10,0.5-20.3-0.7-30.3-3.6
			c-5-1.4-9.9-3.3-14.7-5.5l-1.8-0.9c-0.6-0.3-1.2-0.6-1.8-0.9c-1.2-0.6-2.3-1.3-3.5-1.9c-1.1-0.7-2.3-1.4-3.4-2.1l-0.8-0.5
			l-0.8-0.6l-1.7-1.1l-1.6-1.1l-1.6-1.2l-1.6-1.2l-0.8-0.6l-0.8-0.6c-1-0.9-2.1-1.7-3.1-2.6c-1.1-1-2.2-2.1-3.3-3.2
			c-4.4-4.3-8.4-9.2-11.9-14.5c-3.5-5.3-6.5-11-8.8-17c-2.4-6-4.1-12.3-5.2-18.8C9.2,106,8.8,99.4,9.1,92.8c0.3-6.7,1.3-13.4,3.1-20
			c1.8-6.5,4.5-13.2,8-19.5c3.5-6.3,7.8-12.4,12.8-17.8c0.6-0.7,1.2-1.3,1.9-2l0.5-0.5l0.6-0.6l1.1-1.1c1.5-1.5,3.1-2.9,4.8-4.3
			c0.8-0.7,1.7-1.3,2.5-2l1.3-1c0.4-0.3,0.9-0.6,1.3-0.9c0.9-0.6,1.7-1.2,2.6-1.8c0.9-0.6,1.8-1.2,2.7-1.7c3.6-2.2,7.4-4.2,11.2-5.8
			c1.9-0.8,3.8-1.6,5.8-2.3c1-0.3,1.9-0.7,2.9-1c0.5-0.2,1-0.3,1.5-0.4c0.5-0.1,1-0.3,1.5-0.4c-5.6,2-11,4.5-16.1,7.5
			c-5.1,3-9.9,6.5-14.2,10.5c-1.1,1-2.1,2-3.2,3c-1,1-2,2.1-3,3.1l-0.7,0.8l-0.4,0.4L37,35.5l-1.2,1.4c-0.8,1-1.6,1.9-2.3,2.9
			c-3,4-5.7,8.2-8.1,12.7c-4.7,8.9-8,18.5-9.6,28.2c-1.6,9.7-1.7,19.6-0.2,29.2c0.7,9.4,3,18.6,6.6,27.1c0.5,1.1,0.9,2.1,1.4,3.1
			c0.5,1,1,2.1,1.6,3.1c0.5,1,1.1,2,1.7,3c0.6,1,1.2,1.9,1.8,2.9c2.5,3.8,5.2,7.3,8.2,10.5c0.4,0.4,0.7,0.8,1.1,1.2
			c0.4,0.4,0.8,0.8,1.1,1.1c0.4,0.4,0.8,0.7,1.2,1.1l0.6,0.6l0.3,0.3l0.1,0.1l0.1,0.1c0.7,0.6,1.4,1.2,2.1,1.8
			c0.7,0.6,1.4,1.2,2.1,1.7c2.9,2.3,5.9,4.3,9,6c6.2,3.5,12.6,5.9,18.9,7.2c5.7,1.4,11.5,2.3,17.1,2.7l-1.6-0.2l-0.8-0.1l-0.8-0.2
			c-1.1-0.2-2.1-0.4-3.2-0.6c-1-0.2-2.1-0.5-3.1-0.8c-0.5-0.1-1-0.3-1.6-0.4l-1.6-0.5C74,179.5,70,178,66,176.1
			c-1-0.5-2-0.9-2.9-1.4c-1-0.5-1.9-1-2.9-1.5c-0.5-0.3-1-0.5-1.4-0.8l-1.4-0.8c-0.9-0.6-1.9-1.1-2.8-1.7c-0.9-0.6-1.8-1.2-2.7-1.8
			l-0.7-0.5l-0.7-0.5l-1.3-1c-1.8-1.3-3.4-2.7-5.1-4.1c-0.4-0.3-0.9-0.8-1.3-1.2l-1.4-1.3c-0.9-0.8-1.8-1.7-2.6-2.6l-1.3-1.4
			l-1.2-1.4c-0.8-0.9-1.6-1.9-2.4-2.9c-3.2-3.9-6-8.1-8.4-12.6c-4.9-8.9-8.2-18.7-9.8-28.8c-0.8-11.1,0.5-22.4,3.9-33.1
			c1.7-5.4,3.9-10.6,6.5-15.5c2.6-4.9,5.7-9.6,9.2-13.9c-0.2,0.4-0.4,0.8-0.6,1.2l-0.9,1.4c-0.3,0.5-0.6,0.9-0.8,1.4
			c-0.6,0.9-1.1,1.9-1.6,2.8c-0.5,1-1,1.9-1.5,2.9c-0.5,1-1,1.9-1.4,2.9c-1.8,3.9-3.3,8-4.5,12.1c-2.4,8.2-3.5,16.8-3.4,25.2
			c-0.3,3.9-0.3,7.9,0,11.8c0.1,1,0.2,2,0.3,2.9c0.1,0.5,0.1,1,0.2,1.5c0.1,0.5,0.1,1,0.2,1.4c0.1,1,0.3,1.9,0.5,2.9
			c0.2,1,0.4,1.9,0.6,2.9c0.9,3.8,2,7.5,3.4,11c0.7,1.8,1.5,3.5,2.3,5.2c0.4,0.8,0.8,1.7,1.3,2.5c0.2,0.4,0.4,0.8,0.7,1.2
			c0.2,0.4,0.5,0.8,0.7,1.2c0.5,0.8,0.9,1.6,1.4,2.4c0.5,0.8,1,1.6,1.5,2.3c0.3,0.4,0.5,0.8,0.8,1.1c0.3,0.4,0.5,0.7,0.8,1.1
			c0.5,0.7,1.1,1.5,1.7,2.2c2.3,2.8,4.7,5.4,7.3,7.7c0.3,0.3,0.6,0.6,1,0.9l0.5,0.4c0.1,0.1,0.2,0.1,0.2,0.2l0.2,0.2
			c0.6,0.5,1.2,0.9,1.8,1.4c0.6,0.5,1.2,0.9,1.8,1.3c0.6,0.4,1.2,0.9,1.8,1.3c0.6,0.4,1.2,0.8,1.8,1.2c0.6,0.4,1.3,0.8,1.9,1.1
			c0.6,0.4,1.3,0.7,1.9,1.1c0.6,0.3,1.3,0.7,1.9,1c0.6,0.3,1.3,0.6,1.9,0.9c0.6,0.3,1.3,0.6,1.9,0.8c1.3,0.5,2.6,1,3.8,1.4
			c5.2,1.9,10.6,3.4,15.9,4.3c-9.6-2.6-19-7-27.3-12.8c-1-0.7-2-1.5-3.1-2.3c-0.5-0.4-1-0.8-1.5-1.2l-1.5-1.2l-0.7-0.6l-0.4-0.3
			c-0.1-0.1-0.3-0.2-0.4-0.3c-0.5-0.5-1.1-1-1.6-1.5c-1.1-1-2.1-2-3.1-3c-4-4.2-7.5-8.8-10.6-13.8c-3.7-6.2-6.7-13-8.7-20.1
			c-0.5-1.8-0.9-3.5-1.3-5.3c-0.2-0.9-0.4-1.8-0.5-2.7l-0.2-1.4c-0.1-0.5-0.1-0.9-0.2-1.4c-0.1-0.9-0.3-1.8-0.4-2.7
			c-0.1-0.9-0.2-1.8-0.3-2.8c-0.1-0.9-0.1-1.8-0.2-2.8c0-0.9-0.1-1.8-0.1-2.8c0.7-9.3,3-18.5,6.7-27.1c-0.1,1-0.3,2.1-0.3,3
			c-0.1,0.5-0.2,1.1-0.3,1.7c-0.1,0.6-0.1,1.3-0.1,2c0,0.7,0,1.5,0.1,2.2c0.1,0.8,0.1,1.6,0.3,2.4c0.2,1.6,0.6,3.2,1.1,4.8
			c0.5,1.5,1.1,3,1.7,4.3c0.7,1.3,1.4,2.4,2.2,3.3c0.7,0.9,1.5,1.5,2.3,1.8c1.5,0.6,2.8,0,3.8-2.4c0.4-3.1,1-6.3,1.8-9.5
			c0.8-3.2,1.9-6.4,3.2-9.5c1.3-3.1,2.9-6.2,4.7-9.2c1.8-3,3.8-5.8,6.1-8.4c0.6-0.7,1.1-1.3,1.7-1.9l0.4-0.5l0.2-0.2l0.1-0.1
			l0.1-0.1l1-1l1-1l1.1-1l1.1-1c0.4-0.3,0.7-0.6,1.1-0.9c3-2.5,6.2-4.7,9.5-6.6c3.3-1.9,6.8-3.4,10.3-4.6c3.5-1.2,7-2,10.5-2.6
			c3.5-0.5,6.8-0.8,10.1-0.8c3.3,0,6.4,0.3,9.3,0.7c5.9,0.9,11,2.6,15.1,4.3c1,0.5,2,0.9,2.9,1.3c0.9,0.4,1.7,0.9,2.5,1.3
			c1.5,0.9,2.8,1.6,3.8,2.3c1,0.7,1.8,1.2,2.3,1.6c0.5,0.4,0.7,0.6,0.7,0.7c0,0.3-0.3,0.4-0.8,0.3c-0.6-0.1-1.4-0.5-2.6-0.9
			c-2.2-1-5.6-2.5-9.7-3.9c-1-0.4-2.1-0.7-3.3-1c-1.1-0.3-2.3-0.6-3.5-0.9c-1.2-0.3-2.5-0.5-3.8-0.7c-1.3-0.2-2.6-0.4-3.9-0.5
			c-2.7-0.3-5.5-0.4-8.3-0.3c-2.8,0.1-5.6,0.4-8.4,0.8c-2.8,0.5-5.5,1.1-8.1,2c-0.7,0.2-1.3,0.4-1.9,0.7c-0.6,0.2-1.3,0.5-1.9,0.7
			c-0.6,0.3-1.2,0.5-1.8,0.8c-0.6,0.3-1.2,0.6-1.8,0.8c-4.6,2.2-8.5,5-11.5,7.5c-3,2.6-5.1,4.9-6.4,6.6c-1.1,1.5-1.6,2.3-1.2,2.1
			l1.2-1.1l0.6-0.5l0.7-0.6c0.5-0.4,0.9-0.8,1.4-1.1l1.5-1.1c0.2-0.2,0.5-0.4,0.7-0.5l0.8-0.5c0.5-0.3,1-0.7,1.5-1
			c1-0.6,2.1-1.3,3.1-1.8c-0.9,0.8-1.7,1.6-2.4,2.4c-0.4,0.4-0.8,0.8-1.1,1.2c-0.4,0.4-0.7,0.8-1.1,1.2c-0.7,0.9-1.3,1.7-1.9,2.5
			c-0.3,0.4-0.6,0.9-0.9,1.3c-0.1,0.2-0.2,0.4-0.4,0.6c-0.1,0.2-0.2,0.4-0.3,0.6c-0.3,0.4-0.6,0.8-1,1.3c-0.3,0.4-0.7,0.9-1,1.3
			c-0.3,0.4-0.7,0.9-1,1.3c-0.3,0.5-0.7,0.9-1,1.4c-0.2,0.2-0.3,0.5-0.5,0.7l-0.5,0.7c-0.3,0.5-0.6,1-1,1.4c-0.3,0.5-0.6,1-0.9,1.5
			c-0.3,0.5-0.6,1-0.8,1.5c-0.3,0.5-0.5,1-0.8,1.5c-0.1,0.2-0.2,0.5-0.4,0.7c-0.1,0.2-0.2,0.5-0.3,0.7c-0.2,0.5-0.4,1-0.6,1.4
			c-0.2,0.5-0.3,1-0.5,1.4c-0.1,0.5-0.3,0.9-0.4,1.4c-0.1,0.4-0.2,0.9-0.3,1.3c-0.1,0.8-0.2,1.6-0.2,2.3c0,0.6,0,1.2,0,1.8
			c0,0.6,0,1.2,0,1.8c0,0.3,0,0.6,0,0.9c0,0.3,0,0.6,0,0.9c0,0.6,0,1.2,0,1.8c0,0.6,0,1.2,0.1,1.8c0,0.3,0,0.6,0,0.9
			c0,0.3,0,0.6,0.1,0.9c0,0.6,0.1,1.2,0.1,1.8c0,0.6,0.1,1.2,0.2,1.8c0.2,2.4,0.5,4.7,1,7.1c0.4,2.3,1,4.7,1.7,7l0.3,0.9l0.3,0.9
			c0.2,0.6,0.4,1.1,0.6,1.7c0.2,0.6,0.5,1.1,0.7,1.7c0.2,0.6,0.5,1.1,0.7,1.6l0.4,0.8c0.1,0.3,0.3,0.5,0.4,0.8
			c0.3,0.5,0.6,1.1,0.9,1.6c0.3,0.5,0.6,1,0.9,1.5c0.3,0.5,0.7,1,1,1.5c0.3,0.5,0.7,1,1.1,1.5c0.4,0.5,0.7,0.9,1.1,1.4
			c0.8,0.9,1.6,1.8,2.5,2.6c0.8,0.8,1.8,1.6,2.7,2.4c0.5,0.4,0.9,0.7,1.4,1.1c0.2,0.2,0.5,0.3,0.7,0.5l0.7,0.4
			c0.6,0.3,1.2,0.7,1.9,1c0.7,0.3,1.3,0.6,2,0.9c0.7,0.3,1.3,0.6,2,0.8c0.3,0.1,0.7,0.3,1,0.4c0.3,0.1,0.7,0.2,1.1,0.4
			c0.7,0.2,1.4,0.5,2.1,0.7c0.7,0.2,1.4,0.4,2.2,0.6c0.7,0.2,1.5,0.3,2.2,0.5c0.2,0,0.4,0.1,0.5,0.1l0.6,0.1
			c0.4,0.1,0.7,0.1,1.1,0.2c5.9,0.8,12,0.5,17.4-1c0.1-1,1.4-1.1,2.5-1.3c1.1-0.2,1.9-0.4,1.1-1.5c2.3,0.1,4.7-0.1,7-0.5
			c2.3-0.4,4.6-1.2,6.5-2.1c1-0.5,1.8-1.1,2.6-1.7c0.4-0.3,0.7-0.6,1.1-1c0.2-0.2,0.3-0.3,0.5-0.5c0.1-0.2,0.3-0.4,0.4-0.5
			c0.3-0.4,0.5-0.7,0.7-1.1c0.2-0.4,0.4-0.8,0.5-1.2c0.1-0.4,0.2-0.8,0.3-1.2c0.1-0.4,0.1-0.8,0.1-1.2c0.1-0.1,0.3-0.3,0.4-0.4
			c0.5-0.3,0.9-1,1.4-1.9c1.4-0.9,2.6-1.8,3.7-2.9c0.1-0.1,0.3-0.3,0.4-0.4c0.1-0.1,0.3-0.3,0.4-0.4c0.2-0.3,0.5-0.6,0.7-0.9
			c0.2-0.3,0.5-0.6,0.7-0.9c0.2-0.3,0.4-0.6,0.6-0.9c1.6-2.5,2.6-5.2,3.2-7.9c0.6-2.7,0.7-5.4,0.5-8.1c-0.2-2.7-0.6-5.3-1.2-8
			c0-1.7-0.1-3.5-0.2-5.2c0-0.4-0.1-0.9-0.1-1.3l-0.1-0.7l-0.1-0.7c-0.1-0.4-0.1-0.9-0.1-1.3c-0.1-0.4-0.1-0.9-0.2-1.3
			c0.1,1.1,0.1,2.6,0,4c0,0.4,0,0.7,0,1.1c0,0.4,0,0.7,0,1c0.1,0.7,0.1,1.3,0.3,1.9c0.1,0.2,0.1,0.4,0.2,0.6c0,0.2,0.1,0.4,0.1,0.6
			c0.1,0.4,0.2,0.8,0.3,1.2c0,4.5-0.5,9.1-1.7,13.7c-0.2,0.6-0.3,1.1-0.5,1.7c-0.2,0.6-0.4,1.1-0.6,1.7c-0.2,0.6-0.4,1.1-0.7,1.7
			c-0.1,0.3-0.2,0.6-0.4,0.8l-0.4,0.8c-0.1,0.3-0.2,0.6-0.4,0.8l-0.4,0.8l-0.4,0.8c-0.1,0.3-0.3,0.5-0.5,0.8l-0.5,0.8l-0.2,0.4
			c-0.1,0.1-0.2,0.3-0.2,0.4l-0.5,0.7l-0.2,0.4l-0.3,0.4c-0.1,0.5-0.2,1.1-0.4,1.7c-0.2,0.6-0.4,1.4-0.7,2c-0.3,0.2-0.6,0.4-0.9,0.5
			c-0.2,0.1-0.3,0.2-0.5,0.3c-0.2,0.1-0.3,0.2-0.5,0.2c0.1,0.4,0.1,0.9,0.1,1.3c-1.7,1.9-3.8,3.6-6.1,5c-2.3,1.4-4.9,2.5-7.6,3.3
			c-2.7,0.8-5.4,1.4-8.1,1.7c-2.7,0.4-5.4,0.5-8,0.6c-4.7-0.4-9.5-1.9-13.8-4.4c-2.2-1.2-4.2-2.8-6-4.5c-1.9-1.7-3.6-3.6-5-5.7
			c-2.9-4.2-4.8-9.1-5.5-14.2c-0.7-5-0.4-10.1,0.9-14.8c-0.3,4.9,0.4,9.8,2.1,14c1.6,4.2,4.1,7.9,7.1,10.8c-1.7-1.9-3.2-4-4.5-6.3
			c-1.2-2.3-2.2-4.7-2.8-7.3c-0.6-2.5-1-5.2-1.1-7.9c0-2.7,0.2-5.4,0.8-8.1c0.2-0.4,0.3-0.8,0.5-1.1l0.3-0.6
			c0.1-0.2,0.2-0.4,0.3-0.6l0.6-1.1c0.2-0.4,0.4-0.7,0.6-1.1c0.9-1.5,1.8-2.9,2.9-4.3c1.1-1.4,2.2-2.6,3.5-3.8
			c-1.3,0.9-2.6,2-3.7,3.2c-0.6,0.6-1.1,1.2-1.7,1.8c-0.3,0.3-0.5,0.6-0.8,0.9l-0.7,1l0.5-1.2c0.2-0.4,0.4-0.8,0.5-1.2
			c0.3-0.8,0.8-1.5,1.2-2.3c0.2-0.4,0.4-0.7,0.7-1.1c0.2-0.4,0.4-0.7,0.7-1.1l0.7-1.1c0.2-0.4,0.5-0.7,0.8-1.1
			c1.1-1.4,2.3-2.8,3.6-4c1.3-1.3,2.8-2.4,4.4-3.4c4.4-2.6,9.6-4.1,15-4.3c2.7-0.1,5.4,0.1,8.1,0.6c2.7,0.5,5.4,1.4,7.9,2.6
			c0.6,0.3,1.3,0.6,1.9,1c0.6,0.3,1.2,0.7,1.8,1.1c0.6,0.4,1.2,0.8,1.8,1.2c0.6,0.4,1.2,0.8,1.7,1.3l0.8,0.7
			c0.3,0.2,0.6,0.5,0.8,0.8c0.6,0.5,1.1,1.1,1.6,1.6c1,1.1,2,2.4,2.9,3.7c0.9,1.3,1.6,2.7,2.3,4.1c0.7,1.4,1.2,2.9,1.7,4.4
			c0.4,1.5,0.8,3.1,1,4.6c0.2,1.6,0.3,3.2,0.3,4.8c0,1.6-0.2,3.2-0.4,4.8c-0.3,1.6-0.7,3.2-1.1,4.7c-0.5,1.5-1.1,3-1.9,4.5
			c-0.7,1.5-1.6,2.8-2.5,4.2c-0.9,1.3-2,2.6-3.1,3.8c-1.2,1.3-2.6,2.4-4,3.5c-2.9,2.1-6.2,3.6-9.7,4.4c-3.5,0.8-7.1,1-10.6,0.5
			c-3.5-0.5-7-1.6-10.1-3.4c-1.6-0.9-3-1.9-4.4-3c-0.3-0.3-0.7-0.6-1-0.9c-0.3-0.3-0.6-0.6-0.9-0.9l-0.2-0.2l-0.2-0.3l-0.5-0.5
			c-0.3-0.4-0.6-0.7-0.9-1.1c-2.4-3-4.1-6.7-4.8-10.4c0.4,0.2,0.7,0.4,1.1,0.7c0.4,0.2,0.7,0.4,1.1,0.7c0.8,0.4,1.5,0.8,2.3,1.2
			c0.2,0.4,0.3,0.7,0.5,1.1c0.2,0.4,0.3,0.7,0.6,1c0.2,0.3,0.4,0.7,0.6,1c0.1,0.2,0.2,0.3,0.3,0.5l0.4,0.5c0.5,0.6,0.9,1.3,1.5,1.8
			c0.3,0.3,0.5,0.6,0.8,0.9c0.1,0.1,0.3,0.3,0.4,0.4l0.4,0.4c2.2,1.9,4.7,3.5,7.4,4.5c2.7,1,5.5,1.6,8.3,1.6c2.8,0,5.5-0.4,8.1-1.4
			c2.5-0.9,4.8-2.3,6.7-4c1-0.8,1.8-1.8,2.6-2.7c0.2-0.2,0.4-0.5,0.5-0.7c0.2-0.2,0.3-0.5,0.5-0.7c0.3-0.5,0.6-1,0.9-1.5
			c2.2-4,2.9-8.4,2.2-12.2c-0.2,1.3-0.5,2.5-0.9,3.6c-0.4,1.1-0.8,2.2-1.2,3.3c-0.9,2.1-2,4-3.4,5.8c-0.3,0.4-0.7,0.9-1.1,1.3
			l-0.6,0.6c-0.2,0.2-0.4,0.4-0.6,0.6c-0.9,0.8-1.8,1.5-2.9,2.2c-2.1,1.3-4.5,2.2-7.3,2.6c-0.1-0.6-0.2-1.4,0.6-1.8
			c-1.6,0.5-3.3,0.8-5.1,0.9c-1.8,0.1-3.8-0.2-5.7-0.7c-1-0.3-1.9-0.6-2.8-1.1c-0.9-0.4-1.8-0.9-2.7-1.5c-0.2-0.1-0.4-0.3-0.6-0.5
			c-0.2-0.2-0.4-0.3-0.6-0.5l-0.6-0.5c-0.2-0.2-0.4-0.4-0.6-0.6c-0.8-0.7-1.5-1.6-2.1-2.5c0.4,0.1,0.9,0.2,1.4,0.3
			c0.5,0.1,0.9,0.2,1.4,0.2c0.5,0,0.9,0.1,1.4,0.1c0.4,0,0.9,0,1.3,0c1.7-0.1,3.4-0.4,4.9-0.9c1.7-0.1,3.3,0.1,5,0.1
			c0.8,0,1.7-0.1,2.6-0.2c0.8-0.2,1.7-0.4,2.4-0.8c0.8-0.3,1.6-0.7,2.4-1.1c0.7-0.4,1.4-1,2-1.5c0.3-0.3,0.6-0.6,0.9-0.9
			c0.3-0.3,0.6-0.7,0.9-1.1c0.5-0.7,1-1.5,1.4-2.3c1.6-3.2,1.9-7,1-10.3c-0.4-1.7-1.2-3.2-2.2-4.5c-0.5-0.7-1.1-1.3-1.7-1.9
			l-0.2-0.2c-0.1-0.1-0.2-0.1-0.2-0.2l-0.5-0.4c-0.2-0.2-0.4-0.3-0.6-0.4c-0.2-0.1-0.4-0.3-0.6-0.4l-0.6-0.4l-0.6-0.3
			c-0.2-0.1-0.4-0.2-0.6-0.3c-0.2-0.1-0.4-0.2-0.6-0.3c-0.8-0.4-1.7-0.7-2.6-0.9c-0.9-0.2-1.8-0.4-2.6-0.5c-0.9-0.1-1.8-0.1-2.7,0
			c-3.1-0.4-6.3,0.1-9.1,1.3c-0.3,0.2-0.7,0.3-1.1,0.5l-0.5,0.3l-0.5,0.3c-0.2,0.1-0.3,0.2-0.5,0.3l-0.5,0.3l-0.5,0.4l-0.2,0.2
			l-0.2,0.2c-1.2,0.9-2.5,2.3-3.5,3.6c-2.1,2.7-3.7,5.9-4.5,9.3c-0.8,3.4-0.9,6.9-0.2,10.3c-1.3-3.2-1.9-6.8-1.9-10.4
			c0.1-3.6,0.9-7.3,2.4-10.8c0.7-1.7,1.7-3.4,2.8-5.1c1.1-1.6,2.3-3.1,3.7-4.4c1.4-1.3,3.1-2.5,4.8-3.5C92.8,70.9,94.7,70,96.8,69.4
			z M135.1,171.3c-0.6,0.4-1.2,0.7-1.8,1c-0.6,0.3-1.2,0.7-1.9,1.1c0.2,0.2,0.5,0.4,0.7,0.6c0.6-0.1,1.2-0.4,1.7-0.9
			c0.3-0.2,0.5-0.5,0.7-0.8C134.7,171.9,134.9,171.6,135.1,171.3z M105.9,170.7c4.1,1.6,9.2,2,14.4,1.3c5.3-0.6,10.7-2.2,15.6-4.1
			c0-0.3,0-0.5-0.1-0.8c-4.4,0.5-9.1,1.6-14.2,2.4C116.6,170.4,111.1,171,105.9,170.7z M86.5,141c0,0.1,0,0.2-0.1,0.3
			c0.1-0.1,0.2-0.3,0.2-0.4C86.6,141,86.6,141,86.5,141z M95.3,46.5c-2.6,1.1-5.2,2.1-7.8,3.1c-2.6,1-5.2,2-7.7,3.2
			c-2.5,1.2-5,2.5-7.3,4.1c-2.3,1.6-4.5,3.4-6.4,5.5c-0.3,0.3-0.6,0.6-0.9,0.9c-0.2,0.4-0.5,0.8-0.7,1.2c-0.1,0.2-0.2,0.4-0.3,0.6
			c0,0.1-0.1,0.2-0.1,0.3c0,0.1-0.1,0.2-0.1,0.3c-0.1,0.5-0.3,0.9-0.4,1.4c-0.1,0.2-0.1,0.5-0.2,0.7c-0.1,0.3-0.2,0.5-0.3,0.8
			c-0.2,0.5-0.4,1-0.6,1.5c-0.1,0.3-0.2,0.5-0.4,0.7c-0.1,0.3-0.2,0.5-0.4,0.7c-0.3,0.5-0.6,0.9-1,1.4c-0.2,0.3-0.3,0.6-0.5,0.9
			c-0.2,0.3-0.3,0.6-0.4,0.9c-0.1,0.3-0.3,0.6-0.4,0.9c-0.1,0.3-0.2,0.6-0.3,0.9c-0.2,0.6-0.4,1.1-0.5,1.7c0,0.1-0.1,0.3-0.1,0.4
			c0,0.1-0.1,0.3-0.1,0.4c-0.1,0.3-0.1,0.5-0.2,0.8c-0.1,0.5-0.2,1.1-0.3,1.6c-0.1,0.5-0.2,1.1-0.3,1.6c0,0.3-0.1,0.5-0.1,0.8
			c0,0.1-0.1,0.3-0.1,0.4c0,0.1,0,0.3-0.1,0.4c-0.1,0.5-0.2,1-0.3,1.6l1.6-1c0.1-0.1,0.3-0.2,0.4-0.2l0.4-0.2l0.8-0.4
			c-0.3,0.4-0.5,0.7-0.7,1.1c-0.2,0.4-0.4,0.8-0.5,1.1c-0.1,0.4-0.3,0.7-0.4,1.1c-0.1,0.4-0.2,0.8-0.2,1.1c-0.1,0.4-0.1,0.8-0.1,1.1
			c0,0.4,0,0.8,0,1.1c0,0.4,0,0.7,0,1.1l0,0.5l0,0.6c0,0.4,0.1,0.7,0.1,1.1c0,0.2,0,0.4,0,0.5c0,0.2,0,0.4,0,0.5
			c0.1,0.7,0.1,1.4,0,2.1c0,0.7-0.1,1.4-0.3,2.2c-0.2,0.7-0.4,1.5-0.8,2.3c0.5,0.1,1.2,0.4,1.8,0.8c0.6,0.4,1,0.9,1,1.4
			c0,0.1,0,0.3,0,0.4c0,0.1,0,0.3,0,0.4c0,0.3,0,0.6,0,0.9c0,0.3,0,0.6,0,0.8c0,0.3,0,0.6,0,0.8c0,0.3,0,0.6,0,0.8
			c0,0.3-0.1,0.6-0.1,0.8c0,0.5,0,1.1-0.1,1.6c0,0.3,0,0.5,0,0.8c0,0.3,0,0.5,0,0.8c0,0.3,0,0.5,0.1,0.8c0,0.3,0.1,0.5,0.2,0.7
			c0.1,0.5,0.3,1,0.4,1.4c0.2,0.4,0.5,0.9,0.8,1.3c0.1,0.3,0.2,0.5,0.3,0.8c0.1,0.3,0.2,0.5,0.3,0.8c0.1,0.3,0.2,0.5,0.3,0.8
			c0.1,0.1,0.1,0.3,0.1,0.4l0.2,0.4c0.2,0.5,0.4,1,0.6,1.5c0.2,0.5,0.5,0.9,0.7,1.4c0.2,0.5,0.5,0.9,0.8,1.3
			c0.1,0.2,0.3,0.4,0.4,0.6c0.1,0.1,0.1,0.2,0.2,0.3c0.1,0.1,0.2,0.2,0.2,0.3c0.3,0.4,0.7,0.7,1,1c0.1,0.1,0.2,0.2,0.3,0.2
			c0.1,0.1,0.2,0.1,0.3,0.2c0.2,0.1,0.4,0.3,0.6,0.4c0.2,0.4,1.1,0.6,2.2,0.8c0.5,0.1,1.1,0.2,1.7,0.3c0.3,0.1,0.5,0.1,0.8,0.2
			c0.3,0.1,0.5,0.1,0.7,0.2c0.6,0.7,1.3,1.3,1.9,2c0.3,0.3,0.7,0.6,1,0.9l0.2,0.2c0.1,0.1,0.2,0.2,0.2,0.2l0.5,0.4
			c0.1-0.2,0.3-0.5,0.5-0.7c-0.1-0.1-0.2-0.3-0.4-0.4c-0.1-0.1-0.2-0.3-0.3-0.4c-0.2-0.3-0.5-0.5-0.7-0.8c-0.1-0.1-0.1-0.1-0.2-0.2
			c-0.1-0.1-0.1-0.1-0.2-0.2c-0.1-0.1-0.3-0.2-0.4-0.4c-0.1-0.1-0.3-0.2-0.5-0.3c-0.2-0.1-0.3-0.2-0.5-0.3c-2-1.3-4-2.9-5.8-5
			c-1.8-2-3.2-4.3-4.2-6.7c-0.1-0.2-0.1-0.4-0.2-0.6l-0.2-0.6l-0.2-0.6c-0.1-0.2-0.1-0.4-0.2-0.6c-0.1-0.4-0.2-0.8-0.3-1.1l-0.2-0.6
			c-0.1-0.2-0.1-0.4-0.2-0.6c-0.2-0.8-0.5-1.5-0.6-2.3c-0.1-0.4-0.2-0.8-0.3-1.2c-0.1-0.4-0.2-0.8-0.2-1.2c-0.6-3.2-1-6.4-1.1-9.8
			c-0.1-6.7,1-13.7,3.9-20.5c0.3-0.8,0.6-1.5,0.8-2.4l0.4-1.2l0.4-1.2l0.4-1.3c0.1-0.2,0.1-0.4,0.2-0.6l0.2-0.5
			c0.1-0.4,0.3-0.7,0.4-1.1c0.2-0.3,0.4-0.7,0.6-1c1-2.2,2.5-4.1,4.3-5.8c1.8-1.7,3.9-3.2,5.9-4.5c2.1-1.4,4.2-2.6,6.2-3.9
			c0.5-0.3,1-0.7,1.5-1c0.2-0.2,0.5-0.3,0.7-0.5c0.2-0.2,0.5-0.4,0.7-0.6s0.5-0.4,0.7-0.6c0.2-0.2,0.5-0.4,0.7-0.6
			c0.5-0.4,0.9-0.8,1.3-1.3c0.1-0.1,0.1-0.1,0.2-0.2c0.1-0.1,0.2-0.1,0.3-0.2c0.2-0.1,0.4-0.2,0.6-0.3c0.4-0.2,0.9-0.3,1.3-0.5
			C93.7,48,94.6,47.5,95.3,46.5z M123.1,8.7c-6.2-1-12.5-1.5-18.8-1.6c-6.3,0-12.5,0.4-18.6,1.4c-6.1,0.9-12,2.3-17.6,4.1
			c-5.6,1.8-11,3.9-16,6.3c-1,0.5-2.1,1.2-3.2,1.8c-0.3,0.2-0.6,0.4-0.9,0.5c-0.3,0.2-0.6,0.4-0.9,0.6c-0.6,0.4-1.2,0.8-1.8,1.3
			c-0.3,0.2-0.6,0.4-0.9,0.7c-0.3,0.2-0.6,0.5-0.9,0.7c-0.6,0.5-1.3,1-1.9,1.6c-0.2,0.1-0.3,0.3-0.5,0.4c-0.2,0.1-0.3,0.3-0.5,0.4
			c-0.3,0.3-0.6,0.6-0.9,0.9c-0.6,0.6-1.3,1.2-1.9,1.8c-0.6,0.6-1.2,1.3-1.8,2c-0.3,0.3-0.6,0.7-0.9,1c-0.3,0.3-0.6,0.7-0.9,1
			c-0.6,0.7-1.1,1.4-1.7,2.1l-0.4,0.5L31.5,37l-0.7,1.1c-1,1.4-1.9,2.9-2.8,4.4c-0.8,1.5-1.7,2.9-2.3,4.4c-0.3,0.7-0.7,1.5-1,2.2
			c-0.2,0.4-0.3,0.7-0.4,1.1c-0.1,0.4-0.3,0.7-0.4,1.1c-0.5,1.4-0.9,2.8-1.2,4.1c-0.6,2.7-0.9,5-0.7,7c0.2,2,0.7,3.5,1.6,4.6
			c0.9,1,2.2,1.5,3.9,1.4c-0.7-1.6-1-3.4-1-5.4c0-1,0.1-2.1,0.3-3.2c0.1-0.6,0.2-1.1,0.3-1.7c0.1-0.6,0.3-1.1,0.5-1.7
			c0.2-0.6,0.4-1.2,0.6-1.8c0.2-0.6,0.4-1.2,0.7-1.8c0.5-1.2,1.1-2.5,1.8-3.7c0.7-1.2,1.5-2.5,2.3-3.8c0.1-0.2,0.2-0.3,0.3-0.5
			c0.1-0.2,0.2-0.3,0.3-0.5c0.2-0.3,0.5-0.6,0.7-0.9c0.5-0.6,0.9-1.3,1.4-1.9c0.5-0.6,1-1.3,1.6-1.9c0.6-0.6,1.1-1.3,1.7-1.9
			c0.6-0.6,1.2-1.2,1.9-1.8c0.3-0.3,0.6-0.6,1-0.9c0.3-0.3,0.7-0.6,1-0.9c0.7-0.6,1.4-1.2,2.1-1.8c0.7-0.6,1.4-1.1,2.2-1.7
			c0.4-0.3,0.7-0.6,1.1-0.8c0.4-0.3,0.8-0.5,1.1-0.8c0.8-0.5,1.5-1,2.3-1.6c0.8-0.5,1.6-1,2.4-1.4c0.4-0.2,0.8-0.5,1.2-0.7l1.3-0.7
			l1.3-0.7c0.4-0.2,0.8-0.4,1.3-0.6c0.9-0.4,1.7-0.8,2.6-1.2l0.6-0.3l0.7-0.3l1.3-0.5c0.9-0.3,1.8-0.7,2.7-1
			c0.9-0.3,1.8-0.6,2.7-0.9c0.9-0.3,1.8-0.5,2.7-0.8c0.4-0.1,0.9-0.3,1.3-0.4c0.4-0.1,0.9-0.2,1.3-0.3c0.9-0.2,1.8-0.4,2.7-0.6
			c1.8-0.3,3.5-0.7,5.3-0.9c3.5-0.5,6.9-0.7,10.1-0.9c6.5-0.2,12.2,0.1,16.9,0.3c1.2,0.1,2.3,0.1,3.4,0.1c1,0,2,0,2.9,0
			c0.9-0.1,1.7-0.1,2.5-0.2c0.8-0.1,1.4-0.3,2-0.5c0.6-0.2,1.1-0.5,1.5-0.9c0.4-0.4,0.7-0.8,1-1.3C123.6,11.7,123.6,10.4,123.1,8.7z
			 M126.2,181.8c0.9-0.3,1.7-0.6,2.6-0.8c0.9-0.3,1.7-0.6,2.5-0.9c1.7-0.6,3.3-1.3,5-2c3.3-1.4,6.5-3,9.6-4.8
			c0.8-0.5,1.6-0.9,2.4-1.4c0.4-0.2,0.8-0.5,1.2-0.7c0.4-0.2,0.8-0.5,1.2-0.7c0.8-0.5,1.5-1,2.3-1.5c0.8-0.5,1.5-1,2.3-1.6
			c1.6-1,3.1-2.2,4.6-3.3c0.8-0.6,1.5-1.2,2.3-1.8c0.4-0.3,0.8-0.6,1.1-0.9c0.4-0.3,0.8-0.6,1.1-0.9c-5.2,5-11.1,9.4-17.6,13
			c-0.8,0.5-1.6,0.9-2.4,1.3c-0.8,0.4-1.6,0.9-2.5,1.2c-1.7,0.8-3.4,1.6-5.1,2.2C133.4,179.7,129.8,180.8,126.2,181.8z M160.4,83.7
			c0.6,1.5,1,2.9,1.4,4.5c0.2,0.8,0.3,1.5,0.5,2.3c0.1,0.4,0.1,0.8,0.2,1.2l0.2,1.2c0.4,3.2,0.6,6.5,0.3,9.8
			c-0.2,3.3-0.8,6.7-1.7,10c-0.2,0.8-0.5,1.6-0.7,2.5c-0.3,0.8-0.6,1.6-0.8,2.4l-0.2,0.6l-0.2,0.6l-0.5,1.2
			c-0.2,0.4-0.3,0.8-0.5,1.2l-0.6,1.2l-0.6,1.2c-0.1,0.2-0.2,0.4-0.3,0.6l-0.3,0.6c-0.4,0.8-0.8,1.5-1.3,2.3l-1.4,2.2l-0.3,0.6
			l-0.4,0.5l-0.7,1.1l-0.8,1.1c-0.3,0.4-0.5,0.7-0.8,1.1l-0.8,1.1c-0.3,0.4-0.5,0.7-0.8,1.1c-0.6,0.7-1.2,1.4-1.8,2.1
			c-0.6,0.7-1.3,1.4-1.9,2c-5.3,5.3-11.8,9.6-18.8,12.7c-2.7,1.2-5.6,2.1-8.5,2.7c-3,0.6-6,0.8-9.1,0.9c-0.8,0-1.5,0-2.3,0
			c-0.8,0-1.5-0.1-2.3-0.2l-0.6,0l-0.6-0.1l-1.1-0.1l-1.1-0.1l-1.1-0.2l-1.1-0.2c-0.4-0.1-0.8-0.1-1.1-0.2c-0.7-0.2-1.5-0.3-2.2-0.5
			c-1.5-0.4-3-0.8-4.4-1.3c-0.7-0.2-1.4-0.5-2.2-0.7c-0.7-0.3-1.4-0.5-2.1-0.8c-0.7-0.3-1.4-0.6-2.1-0.9c-0.4-0.1-0.7-0.3-1-0.5
			c-0.3-0.2-0.7-0.3-1-0.5c-0.3-0.2-0.7-0.3-1-0.5c-0.3-0.2-0.7-0.3-1-0.5c-0.7-0.3-1.3-0.7-2-1c-0.7-0.4-1.3-0.7-2-1.1l-0.5-0.3
			l-0.5-0.3c-0.3-0.2-0.6-0.4-1-0.5c-1.3-0.7-2.5-1.5-3.8-2.2c-0.6-0.4-1.2-0.8-1.9-1.2c-0.3-0.2-0.6-0.4-0.9-0.6
			c-0.3-0.2-0.6-0.4-0.9-0.6c-0.6-0.4-1.2-0.8-1.9-1.2c-0.7-0.4-1.3-0.9-1.9-1.3c-0.7-0.4-1.3-0.9-1.9-1.4c-0.7-0.5-1.3-0.9-1.9-1.4
			c-0.8,0.6-1.6,1.2-2.3,1.8l1.3,0.8c0.4,0.3,0.9,0.5,1.3,0.8c0.4,0.5,0.7,1,1.1,1.5c0.4,0.5,0.8,0.9,1.1,1.4
			c0.2,0.2,0.4,0.5,0.6,0.7c0.2,0.2,0.4,0.4,0.5,0.6c0.3,0.4,0.7,0.8,1,1.2c0.7,0.8,1.4,1.6,2.1,2.4c0.3,0.4,0.7,0.8,1,1.1
			c0.4,0.4,0.7,0.7,1.1,1.1c2.8,2.9,5.8,5.5,9.2,7.8c-0.4-0.1-0.9-0.3-1.4-0.4c0.7,0.3,1.5,0.7,2.2,1c0.6,0.4,1.2,0.7,1.7,1.1
			c0.6,0.3,1.2,0.6,1.8,1c0.6,0.3,1.2,0.6,1.9,0.9c0.7,0.3,1.3,0.5,2,0.8c0.3,0.1,0.7,0.3,1,0.4c0.3,0.1,0.7,0.2,1.1,0.3
			c0.7,0.2,1.4,0.4,2.2,0.6c0.7,0.2,1.5,0.3,2.3,0.4c0.4,0.1,0.8,0.1,1.2,0.2c0.4,0,0.8,0.1,1.2,0.1c3,0.2,6,0.2,8.9,0
			c8.3,0.3,16.7-0.9,24.5-3.6c7.8-2.7,15-7,20.8-12.3l1.1-1c0.4-0.3,0.7-0.7,1.1-1c0.7-0.7,1.4-1.4,2-2.1c0.6-0.7,1.3-1.5,1.9-2.2
			c0.6-0.7,1.1-1.4,1.6-2.2l0.8-1.1c0.2-0.4,0.5-0.7,0.7-1.1c0.5-0.7,1-1.5,1.4-2.2c0.9-1.5,1.8-3,2.5-4.6
			c3.1-6.2,4.9-12.8,5.5-19.1c0.5-3.8,0.6-7.6,0.3-11.1c0-0.4-0.1-0.9-0.1-1.3l-0.1-0.7l-0.1-0.7c-0.1-0.9-0.3-1.7-0.4-2.6
			c-0.2-0.9-0.4-1.7-0.5-2.5l-0.1-0.6l-0.2-0.6l-0.3-1.2c-1.8-6.5-4.7-12.5-7.9-18.2c0.3,0.9,0.5,1.9,0.7,3c0.1,0.5,0.2,1.1,0.2,1.6
			c0,0.3,0.1,0.6,0.1,0.8l0.1,0.4l0,0.4c0.1,1.1,0.3,2.3,0.5,3.3c0.1,0.5,0.2,1.1,0.3,1.5C160.2,82.7,160.3,83.2,160.4,83.7z"/>
		<path class="st0" d="M70.8,85.9c0.5-1.9,1.3-3.7,2.2-5.5l0.3-0.7l0.2-0.3l0.2-0.3l0.8-1.3c0.5-0.9,1.1-1.7,1.7-2.6l0.5-0.6
			c0.2-0.2,0.3-0.4,0.5-0.6c0.3-0.4,0.7-0.8,1-1.2c0.4-0.4,0.7-0.8,1.1-1.2c0.4-0.4,0.8-0.8,1.2-1.1c1.6-1.5,3.4-2.8,5.4-3.9
			c1.5-1,3-1.8,4.6-2.6c1.6-0.7,3.3-1.4,5.1-1.9c1.8-0.5,3.6-0.9,5.5-1.1c1.9-0.2,3.8-0.3,5.7-0.3c4.6,0.3,9.3,1.6,13.7,4
			c2.2,1.2,4.3,2.6,6.2,4.3c0.2,0.2,0.5,0.4,0.8,0.7l0.8,0.7c0.5,0.5,1,1,1.4,1.5c0.5,0.5,0.9,1,1.4,1.6c0.2,0.3,0.4,0.6,0.6,0.8
			l0.6,0.9c3.2,4.7,5.3,10.3,5.8,16.2c0.2,2.9,0.1,5.9-0.4,8.8c-0.5,2.9-1.4,5.8-2.7,8.6c-0.6,1.4-1.4,2.7-2.2,4
			c-0.8,1.3-1.7,2.5-2.7,3.7c-0.5,0.6-1,1.1-1.5,1.7c-0.2,0.3-0.5,0.6-0.8,0.9c-0.3,0.3-0.6,0.6-0.9,0.9c-1.2,1.1-2.6,2.2-4,3.1
			c-2.8,1.9-6,3.2-9.2,4.1c-3.3,0.8-6.7,1.2-10,1c-1.7-0.1-3.4-0.3-5-0.7c-1.7-0.4-3.3-0.9-4.9-1.5c-1.6-0.6-3.1-1.4-4.6-2.2
			c-0.7-0.4-1.4-0.9-2.2-1.4c-0.7-0.5-1.4-1-2-1.5c-0.3-0.3-0.7-0.5-1-0.8l-0.5-0.4c-0.2-0.1-0.3-0.3-0.5-0.5
			c-0.7-0.7-1.3-1.4-1.9-2.1c-0.6-0.7-1.2-1.5-1.8-2.3c-0.5-0.8-1-1.6-1.5-2.4c-1.9-3.3-3.1-7-3.6-10.8c-1.5-0.8-3-1.3-4.5-1.2
			c-1.5,0.1-3,0.7-4.4,2.3c0.3,5.4,1.9,10.7,4.5,15.6c0.3,0.6,0.7,1.2,1,1.8c0.4,0.6,0.7,1.1,1.1,1.7c0.4,0.6,0.8,1.1,1.2,1.7
			c0.4,0.5,0.9,1.1,1.3,1.6c0.4,0.5,0.9,1,1.4,1.5c0.4,0.4,0.8,0.8,1.3,1.3c0.4,0.4,0.9,0.8,1.3,1.2c0.4,0.4,0.9,0.8,1.4,1.2
			c3.7,3,8.1,5.4,12.6,7c4.6,1.6,9.4,2.3,14.2,2.3c4.8-0.1,9.6-1,14.1-2.6c4.5-1.7,8.8-4.2,12.4-7.3c0.5-0.4,0.9-0.8,1.3-1.2
			c0.4-0.4,0.9-0.8,1.3-1.2l0.3-0.3l0.2-0.2l0.1-0.1l0.5-0.6c0.4-0.4,0.7-0.8,1.1-1.2c0.7-0.8,1.4-1.6,2-2.5
			c0.3-0.4,0.6-0.8,0.9-1.3c0.3-0.4,0.6-0.9,0.9-1.3c0.3-0.4,0.6-0.9,0.8-1.3c0.3-0.5,0.5-0.9,0.8-1.4c0.5-0.9,1-1.9,1.4-2.8
			c0.9-1.9,1.7-3.9,2.3-5.9c2.5-8,2.8-16.6,0.9-24.6c-0.9-4-2.4-7.9-4.4-11.6c-1-1.8-2.1-3.6-3.3-5.2l-0.5-0.6l-0.5-0.6
			c-0.3-0.4-0.6-0.8-1-1.2c-0.3-0.4-0.7-0.8-1-1.2c-0.3-0.4-0.7-0.8-1-1.1c-0.4-0.4-0.7-0.7-1.1-1.1c-0.3-0.3-0.7-0.6-1-0.9l-1-0.9
			l-1-0.9c-0.4-0.3-0.7-0.6-1.1-0.9l-1.1-0.8c-0.7-0.6-1.5-1.1-2.2-1.6c-3-2.1-6.3-3.8-9.7-5.2c-6.8-2.8-14.1-4.1-21.5-4
			c-0.4,0.1-0.9,0.3-1.4,0.4c-3.1,1-6.2,2.1-9.4,3.5c-3.2,1.4-6.4,3.1-9.5,5.2c-3.1,2.1-6,4.5-8.7,7.2c-0.3,0.3-0.7,0.7-1,1
			l-0.5,0.5c-0.2,0.2-0.3,0.4-0.5,0.5c-0.6,0.7-1.1,1.4-1.7,2c-0.5,0.7-1.1,1.4-1.6,2.1c-0.5,0.7-1,1.5-1.5,2.2
			c-1.9,3-3.6,6.3-4.9,9.6c-1.3,3.4-2.2,6.8-2.6,10.3c-0.5,3.5-0.5,6.9-0.2,10.2c0.4,3.3,1.1,6.4,2.2,9.3c2.4,5.7,5.7,10.7,9.4,14.9
			c1.9,2.1,3.9,4,6.1,5.7c0.5,0.4,1.1,0.8,1.6,1.2c0.3,0.2,0.5,0.4,0.8,0.6l0.8,0.5c0.5,0.3,1.1,0.7,1.6,1l1.6,1
			c4.4,2.5,9.1,4.2,13.8,5.1c0.6,0.1,1.2,0.2,1.8,0.3c0.6,0.1,1.2,0.2,1.8,0.2c0.6,0.1,1.2,0.1,1.8,0.2l1.8,0.1
			c2.3,0,4.6-0.1,6.9-0.5c-6.3-0.7-12.4-2.5-17.9-5.5c-2.8-1.5-5.4-3.3-7.7-5.3c-0.6-0.5-1.2-1-1.8-1.6c-0.3-0.3-0.6-0.6-0.8-0.8
			c-0.3-0.3-0.6-0.6-0.8-0.9c-0.5-0.6-1.1-1.2-1.6-1.8c-0.2-0.3-0.5-0.6-0.7-0.9l-0.7-1c-0.2-0.3-0.5-0.7-0.7-1
			c-0.2-0.3-0.4-0.7-0.7-1c-0.4-0.7-0.8-1.4-1.2-2.1c-0.2-0.4-0.4-0.7-0.5-1.1l-0.5-1.1c-0.1-0.2-0.2-0.4-0.2-0.5l-0.2-0.6l-0.4-1.1
			l-0.4-1.1c-0.1-0.2-0.1-0.4-0.2-0.6l-0.2-0.6c-0.1-0.4-0.2-0.8-0.3-1.2l-0.3-1.2c0-0.2-0.1-0.4-0.1-0.6l-0.1-0.6
			c-0.1-0.4-0.1-0.8-0.2-1.2c-0.1-0.8-0.2-1.6-0.2-2.4C66.2,98,67.7,91.5,70.8,85.9z"/>
		<path class="st0" d="M108,81c0.2,0.1,0.5,0.3,0.8,0.4l0.1,0l0.1,0l0.1,0c0.1,0,0.2,0.1,0.2,0.1c0.3,0.1,0.6,0.3,0.9,0.4
			c0.6,0.3,1.2,0.7,1.8,1.1c3.7,2.1,7.3,7.3,7.5,14.3c1.7-4.1,2.1-8.8,1.3-13.1c-0.5-1-1.3-1.9-2.2-2.5l-0.4-0.2
			c-0.1-0.1-0.3-0.1-0.4-0.2l-0.4-0.2c-0.1-0.1-0.3-0.1-0.4-0.2c-0.3-0.1-0.6-0.2-0.8-0.3c-0.3-0.1-0.6-0.1-0.9-0.2
			c-1.2-0.2-2.4-0.2-3.6,0c-0.3,0-0.6,0.1-0.9,0.1c-0.1,0-0.3,0-0.4,0.1l-0.4,0.1l-0.4,0.1c-0.1,0-0.1,0-0.2,0l-0.3,0
			C108.6,81,108.3,81,108,81z"/>
		<path class="st0" d="M118.6,103.6c0.3-1.1,0.5-2.1,0.7-3.1c0.1-1,0.2-2,0.1-2.9c-0.3,0.8-0.7,1.5-1.1,2.3
			c-0.1,0.2-0.2,0.4-0.3,0.6l-0.2,0.3l-0.2,0.3c-0.1,0.2-0.2,0.4-0.4,0.6c-0.1,0.2-0.3,0.4-0.4,0.5l-0.2,0.3l-0.1,0.1l-0.1,0.1
			c-0.1,0.1-0.2,0.2-0.2,0.4c-0.2,0.2-0.3,0.5-0.5,0.7c-0.3,0.4-0.7,0.8-1.1,1.2c-0.4,0.4-0.9,0.7-1.3,1.1c-0.5,0.3-1,0.6-1.6,0.9
			c-0.1,0-0.1,0.1-0.2,0.1c-0.1,0-0.1,0.1-0.2,0.1c-0.1,0-0.3,0.1-0.4,0.2c-0.2,0-0.3,0.1-0.5,0.1c-0.1,0-0.2,0.1-0.2,0.1
			c-0.1,0-0.2,0-0.2,0.1c-0.6,0.2-1.3,0.3-2,0.4l-0.4,0.1l-0.2,0.1c-0.1,0-0.1,0-0.2,0c-0.1,0-0.3,0.1-0.4,0.1c-0.1,0-0.3,0-0.4,0.1
			l-0.2,0l-0.2,0c-0.2,0-0.3,0-0.5,0.1c-0.2,0-0.3,0-0.5,0c-0.1,0-0.2,0-0.2,0l-0.2,0l-0.5,0c-0.2,0-0.3,0-0.5,0c-0.1,0-0.2,0-0.2,0
			l-0.2,0c-0.2,0-0.3,0-0.5-0.1c-0.2,0-0.3-0.1-0.5-0.1l-0.3,0l-0.2-0.1c-0.2,0-0.3-0.1-0.5-0.1c-0.2-0.1-0.3-0.1-0.5-0.2l-0.3-0.1
			c-0.1,0-0.2-0.1-0.2-0.1c-0.2-0.1-0.3-0.1-0.5-0.2c-0.2-0.1-0.3-0.2-0.5-0.2l-0.3-0.1c0,0-0.1,0-0.1,0l-0.1,0
			c-0.5-0.1-0.9-0.3-1.4-0.5c-0.9-0.4-1.8-1.1-2.6-1.9c-0.8-0.9-1.4-1.9-1.9-3.2c-0.2-0.6-0.4-1.3-0.6-2c0-0.2-0.1-0.4-0.1-0.5
			c0-0.2,0-0.4-0.1-0.5c0-0.2,0-0.4,0-0.5c0-0.2,0-0.4,0-0.6c0-0.7,0-1.5,0.2-2.3c0.1-0.8,0.3-1.6,0.6-2.4c0.1-0.2,0.1-0.4,0.2-0.6
			c0.1-0.2,0.2-0.4,0.3-0.6c0-0.1,0.1-0.2,0.1-0.3l0.1-0.2c0.1-0.2,0.1-0.3,0.2-0.5c0.3-0.6,0.6-1.2,1-1.8c0.8-1,1.9-1.8,3.2-2.3
			c-1.4,0.1-2.7,0.5-4,1.1c-0.6,0.3-1.2,0.7-1.8,1.1c-0.1,0.1-0.3,0.2-0.4,0.3c-0.1,0.1-0.3,0.2-0.4,0.4l-0.5,0.5
			c-0.1,0.1-0.2,0.2-0.2,0.2l-0.2,0.3L89.9,90c-0.1,0.1-0.2,0.2-0.2,0.3c-0.1,0.2-0.3,0.4-0.4,0.5c-0.1,0.2-0.3,0.4-0.4,0.5
			c-0.1,0.2-0.3,0.4-0.4,0.6c-0.3,0.4-0.5,0.8-0.7,1.2c-0.2,0.4-0.4,0.8-0.6,1.2c-0.2,0.4-0.4,0.8-0.5,1.3c-0.1,0.2-0.1,0.4-0.2,0.7
			c-0.1,0.2-0.1,0.4-0.2,0.7c-0.2,0.9-0.4,1.8-0.5,2.7c-0.1,0.9-0.1,1.8-0.1,2.8c0,0.9,0.2,1.8,0.3,2.7c0.2,0.9,0.4,1.8,0.8,2.6
			c0.3,0.8,0.7,1.7,1.1,2.4c0.4,0.8,1,1.5,1.5,2.2c0.6,0.7,1.2,1.3,1.9,2c1.6,1.4,3.3,2.6,5.1,3.6c0.4,0.3,0.9,0.4,1.4,0.7
			c0.2,0.1,0.5,0.2,0.7,0.3l0.7,0.3l0.7,0.2c0.2,0.1,0.5,0.2,0.7,0.2c0.5,0.1,1,0.3,1.4,0.4l0.7,0.2l0.7,0.1c0.5,0.1,1,0.1,1.5,0.2
			c0.2,0,0.5,0,0.7,0l0.7,0l0.7,0c0.2,0,0.5,0,0.7,0c1.9-0.1,3.8-0.5,5.6-1c1.8-0.6,3.4-1.4,4.8-2.4c1.4-1,2.7-2.1,3.7-3.4
			c0.2-0.3,0.5-0.6,0.7-1l0.3-0.5c0.1-0.2,0.2-0.3,0.3-0.5l0.3-0.5l0.1-0.3l0.1-0.3l0.3-0.5l0.1-0.3l0.2-0.3
			c0.9-1.7,1.4-3.4,1.8-5.1c0.4-1.7,0.5-3.4,0.4-5.1c-0.1-0.5-0.1-1-0.1-1.5c-0.4,1.3-1,2.5-1.6,3.8c-0.2,0.3-0.3,0.6-0.5,0.9
			c-0.2,0.3-0.4,0.6-0.5,0.9c-0.2,0.3-0.4,0.6-0.6,0.9l-0.3,0.4c-0.1,0.2-0.2,0.3-0.3,0.4c-0.2,0.3-0.4,0.6-0.6,0.9
			c-0.2,0.3-0.4,0.6-0.7,0.8c-0.1,0.1-0.1,0.1-0.2,0.2l-0.1,0.2c-0.1,0.1-0.2,0.2-0.3,0.3l-0.1,0.2c0,0.1-0.1,0.1-0.1,0.1
			c-0.1,0.1-0.2,0.2-0.3,0.3c-0.7,0.8-1.5,1.5-2.4,2.2c-1.7,1.3-3.8,2.4-6,3c-2.3,0.6-4.7,0.8-7.2,0.6l0.7,0c0.2,0,0.4,0,0.7-0.1
			c0.2,0,0.4,0,0.7-0.1c0.2,0,0.4,0,0.6-0.1c0.2,0,0.4-0.1,0.6-0.1c0.2,0,0.4-0.1,0.6-0.2c0.4-0.1,0.8-0.2,1.2-0.4
			c0.2-0.1,0.4-0.2,0.6-0.2c0.1,0,0.2-0.1,0.3-0.1l0.3-0.1c0.2-0.1,0.4-0.2,0.6-0.2c0.2-0.1,0.4-0.2,0.5-0.3c0.7-0.4,1.4-0.8,2-1.3
			l0.2-0.2l0.2-0.2l0.4-0.4c0.3-0.3,0.5-0.5,0.8-0.8c0.5-0.5,0.9-1.1,1.3-1.7c0.1-0.2,0.2-0.3,0.3-0.4c0.1-0.1,0.2-0.3,0.2-0.5
			c0.2-0.3,0.3-0.6,0.4-0.9c0.1-0.2,0.1-0.3,0.2-0.5l0.1-0.2c0-0.1,0-0.2,0.1-0.2c0-0.2,0.1-0.3,0.1-0.5l0-0.1l0-0.1l0.1-0.2
			L118.6,103.6z"/>
		<path class="st0" d="M69.4,93.2c0.5-1.6,1-3.2,1.6-4.7c0.4-1.9,1-3.8,1.7-5.6c-0.2,0.2-0.3,0.5-0.5,0.7l-0.5,0.8
			c-0.3,0.5-0.6,1-0.9,1.5C70.1,88.3,69.6,90.8,69.4,93.2z"/>
		<path class="st0" d="M77.5,156.9c0.3,0.2,0.6,0.4,0.9,0.6c8,3.4,16.6,5.4,25.2,5.7c1.5-0.1,3-0.2,4.5-0.4c0.4,0,0.7-0.1,1.1-0.1
			c0.4,0,0.7-0.1,1.1-0.2c0.7-0.1,1.5-0.2,2.2-0.4c0.7-0.1,1.5-0.3,2.2-0.4c0.7-0.2,1.5-0.3,2.2-0.5c0.7-0.2,1.5-0.4,2.2-0.6
			c0.7-0.2,1.4-0.4,2.2-0.6c0.4-0.1,0.7-0.2,1.1-0.3l1.1-0.4c0.7-0.3,1.4-0.5,2.1-0.8c0.7-0.3,1.4-0.6,2.1-0.8l0.5-0.2l0.5-0.2
			l1-0.5c1.4-0.6,2.7-1.3,4-2c0.7-0.4,1.3-0.7,2-1.1c0.3-0.2,0.7-0.4,1-0.6l1-0.6c-4.7,2.7-9.8,4.6-15,6c-0.6,0.2-1.3,0.3-2,0.5
			c-0.7,0.1-1.3,0.3-2,0.4c-1.3,0.2-2.6,0.5-3.9,0.7c-0.7,0.1-1.3,0.2-2,0.3c-0.7,0.1-1.3,0.1-2,0.2c-0.3,0-0.7,0.1-1,0.1
			c-0.3,0-0.7,0-1,0.1c-0.7,0-1.3,0.1-2,0.1c-5.2,0.2-10.4-0.1-15.3-0.9C86.7,159.4,82,158.3,77.5,156.9z"/>
		<path class="st0" d="M162.7,172c0.7-0.5,1.7-1.2,2.7-1.9c1-0.8,2.1-1.6,3.1-2.4c1-0.9,2.1-1.8,3-2.6c0.5-0.4,0.9-0.8,1.3-1.2
			c0.4-0.4,0.8-0.7,1.1-1c1.3-2,2.1-3.7,3-5.6c-0.5,0.5-1,1.1-1.6,1.6l-0.8,0.8c-0.1,0.1-0.3,0.3-0.4,0.4l-0.5,0.4
			c-0.6,0.6-1.2,1.1-1.9,1.7l-0.9,0.8c-0.3,0.3-0.6,0.5-1,0.8c-1.1,1.4-2.3,2.8-3.5,4.2c-0.6,0.7-1.2,1.4-1.9,2
			C164,170.7,163.3,171.4,162.7,172z"/>
		<path class="st0" d="M156.1,18.6c0.6,0.4,1.2,0.8,1.7,1.2c0.6,0.4,1.1,0.8,1.7,1.2c0.6,0.4,1.1,0.8,1.7,1.3
			c0.5,0.4,1.1,0.9,1.6,1.3c1.1,0.9,2.2,1.7,3.3,2.8c1.1,1,2.3,2,3.4,3.1c4.4,4.3,8.3,9,11.8,14.1c6.9,10.2,11.7,21.9,14,34.1
			c2.4,12.2,2.3,24.9-0.2,37.3c-1.3,6.2-3.2,12.3-5.7,18.2c-2.5,5.9-5.6,11.6-9.2,16.9l-0.4,0.9c-0.1,0.3-0.3,0.6-0.4,0.9l-0.8,1.8
			c-0.5,1.2-1.1,2.4-1.7,3.6c0.4-0.4,0.8-0.8,1.1-1.2l1.1-1.2c0.7-0.8,1.5-1.7,2.2-2.5c0.7-0.9,1.4-1.7,2.1-2.6l1-1.3
			c0.3-0.4,0.6-0.9,1-1.3c0.6-0.9,1.3-1.8,1.9-2.7c0.6-0.9,1.2-1.9,1.8-2.8c1.2-1.9,2.2-3.8,3.3-5.8c2-3.9,3.8-8,5.1-12.1
			c0.7-2.1,1.3-4.2,1.9-6.2c0.1-0.5,0.3-1,0.4-1.6l0.4-1.6c0.2-1.1,0.5-2.1,0.6-3.2c1.5-8.4,1.7-17,0.7-25.1c-0.1-1-0.3-2-0.4-3
			c-0.2-1-0.4-2-0.6-3c-0.1-0.5-0.2-1-0.3-1.5c-0.1-0.5-0.2-1-0.4-1.5c-0.2-1-0.5-1.9-0.8-2.9c-1.1-3.8-2.5-7.5-4.2-11
			c-0.3-0.7-0.7-1.4-1.1-2.2c-0.4-0.7-0.9-1.5-1.3-2.3c-0.2-0.4-0.5-0.8-0.7-1.2c-0.2-0.4-0.5-0.8-0.8-1.2c-0.5-0.8-1.1-1.6-1.6-2.3
			c-0.3-0.4-0.5-0.8-0.8-1.2c-0.3-0.4-0.5-0.8-0.8-1.1c-0.5-0.8-1-1.5-1.5-2.2c-1-1.4-1.9-2.8-2.5-4.1c-3.4-6-7.5-11.4-12.2-16.1
			c-0.6-0.6-1.2-1.2-1.7-1.7c-0.6-0.6-1.2-1.1-1.8-1.7c-0.6-0.5-1.2-1.1-1.8-1.6c-0.6-0.5-1.2-0.9-1.8-1.4c-2.3-1.9-4.8-3.6-7.2-5.2
			c-1.3-0.8-2.5-1.6-3.8-2.3c-1.3-0.7-2.6-1.4-3.9-2.1c-0.3-0.2-0.6-0.3-1-0.5l-1-0.5l-2-0.9c-0.7-0.3-1.3-0.6-2-0.9l-2-0.8
			c-5.3-2.2-10.8-3.8-16.3-5c5.1,1.4,10.3,3.2,15.3,5.4c0.6,0.3,1.2,0.6,1.9,0.9l0.9,0.4c0.3,0.1,0.6,0.3,0.9,0.5
			c1.2,0.6,2.5,1.3,3.7,1.9c1.2,0.7,2.4,1.4,3.6,2.1c0.6,0.3,1.2,0.7,1.8,1.1c0.6,0.4,1.2,0.8,1.8,1.1
			C155.5,18.2,155.8,18.4,156.1,18.6z"/>
	</g>
	<circle class="st1" cx="101.5" cy="106.5" r="81.3"/>
	<g>
		<path class="st2" d="M138.8,156.4c0,4.2-3.4,7.6-7.6,7.6H71.8c-4.2,0-7.6-3.4-7.6-7.6V56.6c0-4.2,3.4-7.6,7.6-7.6h59.5
			c4.2,0,7.6,3.4,7.6,7.6V156.4z"/>
		<path class="st3" d="M66.6,57.5c0-3.3,2.7-5.9,6-5.9h57.7c3.3,0,6,2.7,6,5.9v98.1c0,3.3-2.7,5.9-6,5.9H72.6c-3.3,0-6-2.7-6-5.9
			V57.5z"/>
		<path class="st4" d="M69.3,59.9c0-3.3,1.5-5.3,4.8-5.3c0,0,42.7,0,55.8,0c6.4,0,6.4,2.9,6.4,2.9c0-3.3-2.7-5.9-6-5.9H72.6
			c-3.3,0-6,2.7-6,5.9v98.1c0,3.3,2.7,5.9,6,5.9c0,0-3.3,0-3.3-6.3C69.3,131.4,69.3,59.9,69.3,59.9z"/>
		<path class="st5" d="M130.5,52.6h-58c-2.8,0-5.1,2.3-5.1,5.1v97.6c1,0,1.1-97.6,1.1-97.6c0-2.2,1.8-4,4-4
			C72.5,53.7,130.5,53.4,130.5,52.6z"/>
		<path class="st1" d="M134.5,155.3c0,2.2-1.8,4-4,4c0,0-58,0.4-58,1.1h58c2.8,0,5.1-2.3,5.1-5.1V57.7
			C133.9,57.7,134.5,155.3,134.5,155.3z"/>
		<path class="st6" d="M86.7,59.9c-7.6,0-13.8,6.2-13.8,13.8c0,7.6,6.2,13.8,13.8,13.8c7.6,0,13.8-6.2,13.8-13.8
			C100.5,66.1,94.3,59.9,86.7,59.9z"/>
		<path class="st6" d="M119.3,87.6c7.6,0,13.8-6.2,13.8-13.8c0-7.6-6.2-13.8-13.8-13.8c-7.6,0-13.8,6.2-13.8,13.8
			C105.5,81.4,111.7,87.6,119.3,87.6z"/>
		<path class="st6" d="M86.7,94.2c-7.6,0-13.8,6.2-13.8,13.8c0,7.6,6.2,13.8,13.8,13.8c7.6,0,13.8-6.2,13.8-13.8
			C100.5,100.4,94.3,94.2,86.7,94.2z"/>
		<path class="st6" d="M119.3,94.2c-7.6,0-13.8,6.2-13.8,13.8c0,7.6,6.2,13.8,13.8,13.8c7.6,0,13.8-6.2,13.8-13.8
			C133.2,100.4,126.9,94.2,119.3,94.2z"/>
		<path class="st6" d="M86.7,128.5c-7.6,0-13.8,6.2-13.8,13.8c0,7.6,6.2,13.8,13.8,13.8c7.6,0,13.8-6.2,13.8-13.8
			C100.5,134.7,94.3,128.5,86.7,128.5z"/>
		<path class="st6" d="M119.3,128.5c-7.6,0-13.8,6.2-13.8,13.8c0,7.6,6.2,13.8,13.8,13.8c7.6,0,13.8-6.2,13.8-13.8
			C133.2,134.7,126.9,128.5,119.3,128.5z"/>
		<path class="st7" d="M85.2,58.4c-7.6,0-13.8,6.2-13.8,13.8c0,7.6,6.2,13.8,13.8,13.8C92.8,86,99,79.8,99,72.2
			C99,64.6,92.8,58.4,85.2,58.4z"/>
		<path class="st7" d="M117.8,86c7.6,0,13.8-6.2,13.8-13.8c0-7.6-6.2-13.8-13.8-13.8c-7.6,0-13.8,6.2-13.8,13.8
			C104,79.8,110.2,86,117.8,86z"/>
		<path class="st7" d="M85.2,92.7c-7.6,0-13.8,6.2-13.8,13.8c0,7.6,6.2,13.8,13.8,13.8c7.6,0,13.8-6.2,13.8-13.8
			C99,98.9,92.8,92.7,85.2,92.7z"/>
		<path class="st7" d="M117.8,92.7c-7.6,0-13.8,6.2-13.8,13.8c0,7.6,6.2,13.8,13.8,13.8c7.6,0,13.8-6.2,13.8-13.8
			C131.6,98.9,125.4,92.7,117.8,92.7z"/>
		<path class="st7" d="M85.2,126.9c-7.6,0-13.8,6.2-13.8,13.8c0,7.6,6.2,13.8,13.8,13.8c7.6,0,13.8-6.2,13.8-13.8
			C99,133.1,92.8,126.9,85.2,126.9z"/>
		<path class="st7" d="M117.8,126.9c-7.6,0-13.8,6.2-13.8,13.8c0,7.6,6.2,13.8,13.8,13.8c7.6,0,13.8-6.2,13.8-13.8
			C131.6,133.1,125.4,126.9,117.8,126.9z"/>
		<path class="st8" d="M96.9,72.2c0,6.5-5.2,11.7-11.7,11.7c-6.5,0-11.7-5.2-11.7-11.7c0-6.5,5.2-11.7,11.7-11.7
			C91.7,60.5,96.9,65.8,96.9,72.2z"/>
		<path class="st8" d="M129.5,72.2c0,6.5-5.2,11.7-11.7,11.7c-6.5,0-11.7-5.2-11.7-11.7c0-6.5,5.2-11.7,11.7-11.7
			C124.3,60.5,129.5,65.8,129.5,72.2z"/>
		<path class="st8" d="M96.9,106.5c0,6.5-5.2,11.7-11.7,11.7c-6.5,0-11.7-5.2-11.7-11.7c0-6.5,5.2-11.7,11.7-11.7
			C91.7,94.8,96.9,100,96.9,106.5z"/>
		<path class="st8" d="M129.5,106.5c0,6.5-5.2,11.7-11.7,11.7c-6.5,0-11.7-5.2-11.7-11.7c0-6.5,5.2-11.7,11.7-11.7
			C124.3,94.8,129.5,100,129.5,106.5z"/>
		<path class="st8" d="M96.9,140.8c0,6.5-5.2,11.7-11.7,11.7c-6.5,0-11.7-5.2-11.7-11.7c0-6.5,5.2-11.7,11.7-11.7
			C91.7,129.1,96.9,134.3,96.9,140.8z"/>
		<path class="st8" d="M129.5,140.8c0,6.5-5.2,11.7-11.7,11.7c-6.5,0-11.7-5.2-11.7-11.7c0-6.5,5.2-11.7,11.7-11.7
			C124.3,129.1,129.5,134.3,129.5,140.8z"/>
		<path class="st9" d="M96.3,72.2c0,6.1-5,11.1-11.1,11.1c-6.1,0-11.1-5-11.1-11.1c0-6.1,5-11.1,11.1-11.1
			C91.3,61.1,96.3,66.1,96.3,72.2z"/>
		<path class="st10" d="M128.9,72.2c0,6.1-5,11.1-11.1,11.1c-6.1,0-11.1-5-11.1-11.1c0-6.1,5-11.1,11.1-11.1
			C123.9,61.1,128.9,66.1,128.9,72.2z"/>
		<path class="st11" d="M96.3,106.5c0,6.1-5,11.1-11.1,11.1c-6.1,0-11.1-5-11.1-11.1c0-6.1,5-11.1,11.1-11.1
			C91.3,95.4,96.3,100.4,96.3,106.5z"/>
		<path class="st12" d="M128.9,106.5c0,6.1-5,11.1-11.1,11.1c-6.1,0-11.1-5-11.1-11.1c0-6.1,5-11.1,11.1-11.1
			C123.9,95.4,128.9,100.4,128.9,106.5z"/>
		<path class="st13" d="M96.3,140.8c0,6.1-5,11.1-11.1,11.1c-6.1,0-11.1-5-11.1-11.1c0-6.1,5-11.1,11.1-11.1
			C91.3,129.7,96.3,134.6,96.3,140.8z"/>
		<path class="st14" d="M128.9,140.8c0,6.1-5,11.1-11.1,11.1c-6.1,0-11.1-5-11.1-11.1c0-6.1,5-11.1,11.1-11.1
			C123.9,129.7,128.9,134.6,128.9,140.8z"/>
	</g>
</g>
</svg>
